<?xml version="1.0" encoding="utf-8" standalone="no"?>
<!DOCTYPE svg PUBLIC "-//W3C//DTD SVG 1.1//EN"
  "http://www.w3.org/Graphics/SVG/1.1/DTD/svg11.dtd">
<svg xmlns:xlink="http://www.w3.org/1999/xlink" width="926.817638pt" height="563.772688pt" viewBox="0 0 926.817638 563.772688" xmlns="http://www.w3.org/2000/svg" version="1.1">
 <metadata>
  <rdf:RDF xmlns:dc="http://purl.org/dc/elements/1.1/" xmlns:cc="http://creativecommons.org/ns#" xmlns:rdf="http://www.w3.org/1999/02/22-rdf-syntax-ns#">
   <cc:Work>
    <dc:type rdf:resource="http://purl.org/dc/dcmitype/StillImage"/>
    <dc:date>2026-06-16T15:22:34.336693</dc:date>
    <dc:format>image/svg+xml</dc:format>
    <dc:creator>
     <cc:Agent>
      <dc:title>Matplotlib v3.10.8, https://matplotlib.org/</dc:title>
     </cc:Agent>
    </dc:creator>
   </cc:Work>
  </rdf:RDF>
 </metadata>
 <defs>
  <style type="text/css">*{stroke-linejoin: round; stroke-linecap: butt}</style>
 </defs>
 <g id="figure_1">
  <g id="patch_1">
   <path d="M 0 563.772688 
L 926.817638 563.772688 
L 926.817638 0 
L 0 0 
z
" style="fill: #ffffff"/>
  </g>
  <g id="axes_1">
   <g id="patch_2">
    <path d="M 70.31375 523.894563 
L 919.617638 523.894563 
L 919.617638 23.837813 
L 70.31375 23.837813 
z
" style="fill: #ffffff"/>
   </g>
   <g id="matplotlib.axis_1">
    <g id="xtick_1">
     <g id="line2d_1">
      <path d="M 543.176904 523.894563 
L 543.176904 23.837813 
" clip-path="url(#p4a537b68c0)" style="fill: none; stroke-dasharray: 2.96,1.28; stroke-dashoffset: 0; stroke: #b0b0b0; stroke-opacity: 0.3; stroke-width: 0.8"/>
     </g>
     <g id="line2d_2">
      <defs>
       <path id="mbbcbf483d2" d="M 0 0 
L 0 3.5 
" style="stroke: #000000; stroke-width: 0.8"/>
      </defs>
      <g>
       <use xlink:href="#mbbcbf483d2" x="543.176904" y="523.894563" style="stroke: #000000; stroke-width: 0.8"/>
      </g>
     </g>
     <g id="text_1">
      <!-- $\mathdefault{10^{2}}$ -->
      <g transform="translate(534.376904 538.493) scale(0.1 -0.1)">
       <defs>
        <path id="DejaVuSans-31" d="M 794 531 
L 1825 531 
L 1825 4091 
L 703 3866 
L 703 4441 
L 1819 4666 
L 2450 4666 
L 2450 531 
L 3481 531 
L 3481 0 
L 794 0 
L 794 531 
z
" transform="scale(0.015625)"/>
        <path id="DejaVuSans-30" d="M 2034 4250 
Q 1547 4250 1301 3770 
Q 1056 3291 1056 2328 
Q 1056 1369 1301 889 
Q 1547 409 2034 409 
Q 2525 409 2770 889 
Q 3016 1369 3016 2328 
Q 3016 3291 2770 3770 
Q 2525 4250 2034 4250 
z
M 2034 4750 
Q 2819 4750 3233 4129 
Q 3647 3509 3647 2328 
Q 3647 1150 3233 529 
Q 2819 -91 2034 -91 
Q 1250 -91 836 529 
Q 422 1150 422 2328 
Q 422 3509 836 4129 
Q 1250 4750 2034 4750 
z
" transform="scale(0.015625)"/>
        <path id="DejaVuSans-32" d="M 1228 531 
L 3431 531 
L 3431 0 
L 469 0 
L 469 531 
Q 828 903 1448 1529 
Q 2069 2156 2228 2338 
Q 2531 2678 2651 2914 
Q 2772 3150 2772 3378 
Q 2772 3750 2511 3984 
Q 2250 4219 1831 4219 
Q 1534 4219 1204 4116 
Q 875 4013 500 3803 
L 500 4441 
Q 881 4594 1212 4672 
Q 1544 4750 1819 4750 
Q 2544 4750 2975 4387 
Q 3406 4025 3406 3419 
Q 3406 3131 3298 2873 
Q 3191 2616 2906 2266 
Q 2828 2175 2409 1742 
Q 1991 1309 1228 531 
z
" transform="scale(0.015625)"/>
       </defs>
       <use xlink:href="#DejaVuSans-31" transform="translate(0 0.765625)"/>
       <use xlink:href="#DejaVuSans-30" transform="translate(63.623047 0.765625)"/>
       <use xlink:href="#DejaVuSans-32" transform="translate(128.203125 39.046875) scale(0.7)"/>
      </g>
     </g>
    </g>
    <g id="xtick_2">
     <g id="line2d_3">
      <path d="M 122.330965 523.894563 
L 122.330965 23.837813 
" clip-path="url(#p4a537b68c0)" style="fill: none; stroke-dasharray: 2.96,1.28; stroke-dashoffset: 0; stroke: #b0b0b0; stroke-opacity: 0.3; stroke-width: 0.8"/>
     </g>
     <g id="line2d_4">
      <defs>
       <path id="m526c92d535" d="M 0 0 
L 0 2 
" style="stroke: #000000; stroke-width: 0.6"/>
      </defs>
      <g>
       <use xlink:href="#m526c92d535" x="122.330965" y="523.894563" style="stroke: #000000; stroke-width: 0.6"/>
      </g>
     </g>
    </g>
    <g id="xtick_3">
     <g id="line2d_5">
      <path d="M 228.35453 523.894563 
L 228.35453 23.837813 
" clip-path="url(#p4a537b68c0)" style="fill: none; stroke-dasharray: 2.96,1.28; stroke-dashoffset: 0; stroke: #b0b0b0; stroke-opacity: 0.3; stroke-width: 0.8"/>
     </g>
     <g id="line2d_6">
      <g>
       <use xlink:href="#m526c92d535" x="228.35453" y="523.894563" style="stroke: #000000; stroke-width: 0.6"/>
      </g>
     </g>
    </g>
    <g id="xtick_4">
     <g id="line2d_7">
      <path d="M 303.579446 523.894563 
L 303.579446 23.837813 
" clip-path="url(#p4a537b68c0)" style="fill: none; stroke-dasharray: 2.96,1.28; stroke-dashoffset: 0; stroke: #b0b0b0; stroke-opacity: 0.3; stroke-width: 0.8"/>
     </g>
     <g id="line2d_8">
      <g>
       <use xlink:href="#m526c92d535" x="303.579446" y="523.894563" style="stroke: #000000; stroke-width: 0.6"/>
      </g>
     </g>
    </g>
    <g id="xtick_5">
     <g id="line2d_9">
      <path d="M 361.928424 523.894563 
L 361.928424 23.837813 
" clip-path="url(#p4a537b68c0)" style="fill: none; stroke-dasharray: 2.96,1.28; stroke-dashoffset: 0; stroke: #b0b0b0; stroke-opacity: 0.3; stroke-width: 0.8"/>
     </g>
     <g id="line2d_10">
      <g>
       <use xlink:href="#m526c92d535" x="361.928424" y="523.894563" style="stroke: #000000; stroke-width: 0.6"/>
      </g>
     </g>
    </g>
    <g id="xtick_6">
     <g id="line2d_11">
      <path d="M 409.60301 523.894563 
L 409.60301 23.837813 
" clip-path="url(#p4a537b68c0)" style="fill: none; stroke-dasharray: 2.96,1.28; stroke-dashoffset: 0; stroke: #b0b0b0; stroke-opacity: 0.3; stroke-width: 0.8"/>
     </g>
     <g id="line2d_12">
      <g>
       <use xlink:href="#m526c92d535" x="409.60301" y="523.894563" style="stroke: #000000; stroke-width: 0.6"/>
      </g>
     </g>
    </g>
    <g id="xtick_7">
     <g id="line2d_13">
      <path d="M 449.911299 523.894563 
L 449.911299 23.837813 
" clip-path="url(#p4a537b68c0)" style="fill: none; stroke-dasharray: 2.96,1.28; stroke-dashoffset: 0; stroke: #b0b0b0; stroke-opacity: 0.3; stroke-width: 0.8"/>
     </g>
     <g id="line2d_14">
      <g>
       <use xlink:href="#m526c92d535" x="449.911299" y="523.894563" style="stroke: #000000; stroke-width: 0.6"/>
      </g>
     </g>
    </g>
    <g id="xtick_8">
     <g id="line2d_15">
      <path d="M 484.827926 523.894563 
L 484.827926 23.837813 
" clip-path="url(#p4a537b68c0)" style="fill: none; stroke-dasharray: 2.96,1.28; stroke-dashoffset: 0; stroke: #b0b0b0; stroke-opacity: 0.3; stroke-width: 0.8"/>
     </g>
     <g id="line2d_16">
      <g>
       <use xlink:href="#m526c92d535" x="484.827926" y="523.894563" style="stroke: #000000; stroke-width: 0.6"/>
      </g>
     </g>
    </g>
    <g id="xtick_9">
     <g id="line2d_17">
      <path d="M 515.626575 523.894563 
L 515.626575 23.837813 
" clip-path="url(#p4a537b68c0)" style="fill: none; stroke-dasharray: 2.96,1.28; stroke-dashoffset: 0; stroke: #b0b0b0; stroke-opacity: 0.3; stroke-width: 0.8"/>
     </g>
     <g id="line2d_18">
      <g>
       <use xlink:href="#m526c92d535" x="515.626575" y="523.894563" style="stroke: #000000; stroke-width: 0.6"/>
      </g>
     </g>
    </g>
    <g id="xtick_10">
     <g id="line2d_19">
      <path d="M 724.425385 523.894563 
L 724.425385 23.837813 
" clip-path="url(#p4a537b68c0)" style="fill: none; stroke-dasharray: 2.96,1.28; stroke-dashoffset: 0; stroke: #b0b0b0; stroke-opacity: 0.3; stroke-width: 0.8"/>
     </g>
     <g id="line2d_20">
      <g>
       <use xlink:href="#m526c92d535" x="724.425385" y="523.894563" style="stroke: #000000; stroke-width: 0.6"/>
      </g>
     </g>
    </g>
    <g id="xtick_11">
     <g id="line2d_21">
      <path d="M 830.448949 523.894563 
L 830.448949 23.837813 
" clip-path="url(#p4a537b68c0)" style="fill: none; stroke-dasharray: 2.96,1.28; stroke-dashoffset: 0; stroke: #b0b0b0; stroke-opacity: 0.3; stroke-width: 0.8"/>
     </g>
     <g id="line2d_22">
      <g>
       <use xlink:href="#m526c92d535" x="830.448949" y="523.894563" style="stroke: #000000; stroke-width: 0.6"/>
      </g>
     </g>
    </g>
    <g id="xtick_12">
     <g id="line2d_23">
      <path d="M 905.673865 523.894563 
L 905.673865 23.837813 
" clip-path="url(#p4a537b68c0)" style="fill: none; stroke-dasharray: 2.96,1.28; stroke-dashoffset: 0; stroke: #b0b0b0; stroke-opacity: 0.3; stroke-width: 0.8"/>
     </g>
     <g id="line2d_24">
      <g>
       <use xlink:href="#m526c92d535" x="905.673865" y="523.894563" style="stroke: #000000; stroke-width: 0.6"/>
      </g>
     </g>
    </g>
    <g id="text_2">
     <!-- |V|+|E| nach Augmentierung (size_processed) -->
     <g transform="translate(357.139132 553.743313) scale(0.12 -0.12)">
      <defs>
       <path id="DejaVuSans-7c" d="M 1344 4891 
L 1344 -1509 
L 813 -1509 
L 813 4891 
L 1344 4891 
z
" transform="scale(0.015625)"/>
       <path id="DejaVuSans-56" d="M 1831 0 
L 50 4666 
L 709 4666 
L 2188 738 
L 3669 4666 
L 4325 4666 
L 2547 0 
L 1831 0 
z
" transform="scale(0.015625)"/>
       <path id="DejaVuSans-2b" d="M 2944 4013 
L 2944 2272 
L 4684 2272 
L 4684 1741 
L 2944 1741 
L 2944 0 
L 2419 0 
L 2419 1741 
L 678 1741 
L 678 2272 
L 2419 2272 
L 2419 4013 
L 2944 4013 
z
" transform="scale(0.015625)"/>
       <path id="DejaVuSans-45" d="M 628 4666 
L 3578 4666 
L 3578 4134 
L 1259 4134 
L 1259 2753 
L 3481 2753 
L 3481 2222 
L 1259 2222 
L 1259 531 
L 3634 531 
L 3634 0 
L 628 0 
L 628 4666 
z
" transform="scale(0.015625)"/>
       <path id="DejaVuSans-20" transform="scale(0.015625)"/>
       <path id="DejaVuSans-6e" d="M 3513 2113 
L 3513 0 
L 2938 0 
L 2938 2094 
Q 2938 2591 2744 2837 
Q 2550 3084 2163 3084 
Q 1697 3084 1428 2787 
Q 1159 2491 1159 1978 
L 1159 0 
L 581 0 
L 581 3500 
L 1159 3500 
L 1159 2956 
Q 1366 3272 1645 3428 
Q 1925 3584 2291 3584 
Q 2894 3584 3203 3211 
Q 3513 2838 3513 2113 
z
" transform="scale(0.015625)"/>
       <path id="DejaVuSans-61" d="M 2194 1759 
Q 1497 1759 1228 1600 
Q 959 1441 959 1056 
Q 959 750 1161 570 
Q 1363 391 1709 391 
Q 2188 391 2477 730 
Q 2766 1069 2766 1631 
L 2766 1759 
L 2194 1759 
z
M 3341 1997 
L 3341 0 
L 2766 0 
L 2766 531 
Q 2569 213 2275 61 
Q 1981 -91 1556 -91 
Q 1019 -91 701 211 
Q 384 513 384 1019 
Q 384 1609 779 1909 
Q 1175 2209 1959 2209 
L 2766 2209 
L 2766 2266 
Q 2766 2663 2505 2880 
Q 2244 3097 1772 3097 
Q 1472 3097 1187 3025 
Q 903 2953 641 2809 
L 641 3341 
Q 956 3463 1253 3523 
Q 1550 3584 1831 3584 
Q 2591 3584 2966 3190 
Q 3341 2797 3341 1997 
z
" transform="scale(0.015625)"/>
       <path id="DejaVuSans-63" d="M 3122 3366 
L 3122 2828 
Q 2878 2963 2633 3030 
Q 2388 3097 2138 3097 
Q 1578 3097 1268 2742 
Q 959 2388 959 1747 
Q 959 1106 1268 751 
Q 1578 397 2138 397 
Q 2388 397 2633 464 
Q 2878 531 3122 666 
L 3122 134 
Q 2881 22 2623 -34 
Q 2366 -91 2075 -91 
Q 1284 -91 818 406 
Q 353 903 353 1747 
Q 353 2603 823 3093 
Q 1294 3584 2113 3584 
Q 2378 3584 2631 3529 
Q 2884 3475 3122 3366 
z
" transform="scale(0.015625)"/>
       <path id="DejaVuSans-68" d="M 3513 2113 
L 3513 0 
L 2938 0 
L 2938 2094 
Q 2938 2591 2744 2837 
Q 2550 3084 2163 3084 
Q 1697 3084 1428 2787 
Q 1159 2491 1159 1978 
L 1159 0 
L 581 0 
L 581 4863 
L 1159 4863 
L 1159 2956 
Q 1366 3272 1645 3428 
Q 1925 3584 2291 3584 
Q 2894 3584 3203 3211 
Q 3513 2838 3513 2113 
z
" transform="scale(0.015625)"/>
       <path id="DejaVuSans-41" d="M 2188 4044 
L 1331 1722 
L 3047 1722 
L 2188 4044 
z
M 1831 4666 
L 2547 4666 
L 4325 0 
L 3669 0 
L 3244 1197 
L 1141 1197 
L 716 0 
L 50 0 
L 1831 4666 
z
" transform="scale(0.015625)"/>
       <path id="DejaVuSans-75" d="M 544 1381 
L 544 3500 
L 1119 3500 
L 1119 1403 
Q 1119 906 1312 657 
Q 1506 409 1894 409 
Q 2359 409 2629 706 
Q 2900 1003 2900 1516 
L 2900 3500 
L 3475 3500 
L 3475 0 
L 2900 0 
L 2900 538 
Q 2691 219 2414 64 
Q 2138 -91 1772 -91 
Q 1169 -91 856 284 
Q 544 659 544 1381 
z
M 1991 3584 
L 1991 3584 
z
" transform="scale(0.015625)"/>
       <path id="DejaVuSans-67" d="M 2906 1791 
Q 2906 2416 2648 2759 
Q 2391 3103 1925 3103 
Q 1463 3103 1205 2759 
Q 947 2416 947 1791 
Q 947 1169 1205 825 
Q 1463 481 1925 481 
Q 2391 481 2648 825 
Q 2906 1169 2906 1791 
z
M 3481 434 
Q 3481 -459 3084 -895 
Q 2688 -1331 1869 -1331 
Q 1566 -1331 1297 -1286 
Q 1028 -1241 775 -1147 
L 775 -588 
Q 1028 -725 1275 -790 
Q 1522 -856 1778 -856 
Q 2344 -856 2625 -561 
Q 2906 -266 2906 331 
L 2906 616 
Q 2728 306 2450 153 
Q 2172 0 1784 0 
Q 1141 0 747 490 
Q 353 981 353 1791 
Q 353 2603 747 3093 
Q 1141 3584 1784 3584 
Q 2172 3584 2450 3431 
Q 2728 3278 2906 2969 
L 2906 3500 
L 3481 3500 
L 3481 434 
z
" transform="scale(0.015625)"/>
       <path id="DejaVuSans-6d" d="M 3328 2828 
Q 3544 3216 3844 3400 
Q 4144 3584 4550 3584 
Q 5097 3584 5394 3201 
Q 5691 2819 5691 2113 
L 5691 0 
L 5113 0 
L 5113 2094 
Q 5113 2597 4934 2840 
Q 4756 3084 4391 3084 
Q 3944 3084 3684 2787 
Q 3425 2491 3425 1978 
L 3425 0 
L 2847 0 
L 2847 2094 
Q 2847 2600 2669 2842 
Q 2491 3084 2119 3084 
Q 1678 3084 1418 2786 
Q 1159 2488 1159 1978 
L 1159 0 
L 581 0 
L 581 3500 
L 1159 3500 
L 1159 2956 
Q 1356 3278 1631 3431 
Q 1906 3584 2284 3584 
Q 2666 3584 2933 3390 
Q 3200 3197 3328 2828 
z
" transform="scale(0.015625)"/>
       <path id="DejaVuSans-65" d="M 3597 1894 
L 3597 1613 
L 953 1613 
Q 991 1019 1311 708 
Q 1631 397 2203 397 
Q 2534 397 2845 478 
Q 3156 559 3463 722 
L 3463 178 
Q 3153 47 2828 -22 
Q 2503 -91 2169 -91 
Q 1331 -91 842 396 
Q 353 884 353 1716 
Q 353 2575 817 3079 
Q 1281 3584 2069 3584 
Q 2775 3584 3186 3129 
Q 3597 2675 3597 1894 
z
M 3022 2063 
Q 3016 2534 2758 2815 
Q 2500 3097 2075 3097 
Q 1594 3097 1305 2825 
Q 1016 2553 972 2059 
L 3022 2063 
z
" transform="scale(0.015625)"/>
       <path id="DejaVuSans-74" d="M 1172 4494 
L 1172 3500 
L 2356 3500 
L 2356 3053 
L 1172 3053 
L 1172 1153 
Q 1172 725 1289 603 
Q 1406 481 1766 481 
L 2356 481 
L 2356 0 
L 1766 0 
Q 1100 0 847 248 
Q 594 497 594 1153 
L 594 3053 
L 172 3053 
L 172 3500 
L 594 3500 
L 594 4494 
L 1172 4494 
z
" transform="scale(0.015625)"/>
       <path id="DejaVuSans-69" d="M 603 3500 
L 1178 3500 
L 1178 0 
L 603 0 
L 603 3500 
z
M 603 4863 
L 1178 4863 
L 1178 4134 
L 603 4134 
L 603 4863 
z
" transform="scale(0.015625)"/>
       <path id="DejaVuSans-72" d="M 2631 2963 
Q 2534 3019 2420 3045 
Q 2306 3072 2169 3072 
Q 1681 3072 1420 2755 
Q 1159 2438 1159 1844 
L 1159 0 
L 581 0 
L 581 3500 
L 1159 3500 
L 1159 2956 
Q 1341 3275 1631 3429 
Q 1922 3584 2338 3584 
Q 2397 3584 2469 3576 
Q 2541 3569 2628 3553 
L 2631 2963 
z
" transform="scale(0.015625)"/>
       <path id="DejaVuSans-28" d="M 1984 4856 
Q 1566 4138 1362 3434 
Q 1159 2731 1159 2009 
Q 1159 1288 1364 580 
Q 1569 -128 1984 -844 
L 1484 -844 
Q 1016 -109 783 600 
Q 550 1309 550 2009 
Q 550 2706 781 3412 
Q 1013 4119 1484 4856 
L 1984 4856 
z
" transform="scale(0.015625)"/>
       <path id="DejaVuSans-73" d="M 2834 3397 
L 2834 2853 
Q 2591 2978 2328 3040 
Q 2066 3103 1784 3103 
Q 1356 3103 1142 2972 
Q 928 2841 928 2578 
Q 928 2378 1081 2264 
Q 1234 2150 1697 2047 
L 1894 2003 
Q 2506 1872 2764 1633 
Q 3022 1394 3022 966 
Q 3022 478 2636 193 
Q 2250 -91 1575 -91 
Q 1294 -91 989 -36 
Q 684 19 347 128 
L 347 722 
Q 666 556 975 473 
Q 1284 391 1588 391 
Q 1994 391 2212 530 
Q 2431 669 2431 922 
Q 2431 1156 2273 1281 
Q 2116 1406 1581 1522 
L 1381 1569 
Q 847 1681 609 1914 
Q 372 2147 372 2553 
Q 372 3047 722 3315 
Q 1072 3584 1716 3584 
Q 2034 3584 2315 3537 
Q 2597 3491 2834 3397 
z
" transform="scale(0.015625)"/>
       <path id="DejaVuSans-7a" d="M 353 3500 
L 3084 3500 
L 3084 2975 
L 922 459 
L 3084 459 
L 3084 0 
L 275 0 
L 275 525 
L 2438 3041 
L 353 3041 
L 353 3500 
z
" transform="scale(0.015625)"/>
       <path id="DejaVuSans-5f" d="M 3263 -1063 
L 3263 -1509 
L -63 -1509 
L -63 -1063 
L 3263 -1063 
z
" transform="scale(0.015625)"/>
       <path id="DejaVuSans-70" d="M 1159 525 
L 1159 -1331 
L 581 -1331 
L 581 3500 
L 1159 3500 
L 1159 2969 
Q 1341 3281 1617 3432 
Q 1894 3584 2278 3584 
Q 2916 3584 3314 3078 
Q 3713 2572 3713 1747 
Q 3713 922 3314 415 
Q 2916 -91 2278 -91 
Q 1894 -91 1617 61 
Q 1341 213 1159 525 
z
M 3116 1747 
Q 3116 2381 2855 2742 
Q 2594 3103 2138 3103 
Q 1681 3103 1420 2742 
Q 1159 2381 1159 1747 
Q 1159 1113 1420 752 
Q 1681 391 2138 391 
Q 2594 391 2855 752 
Q 3116 1113 3116 1747 
z
" transform="scale(0.015625)"/>
       <path id="DejaVuSans-6f" d="M 1959 3097 
Q 1497 3097 1228 2736 
Q 959 2375 959 1747 
Q 959 1119 1226 758 
Q 1494 397 1959 397 
Q 2419 397 2687 759 
Q 2956 1122 2956 1747 
Q 2956 2369 2687 2733 
Q 2419 3097 1959 3097 
z
M 1959 3584 
Q 2709 3584 3137 3096 
Q 3566 2609 3566 1747 
Q 3566 888 3137 398 
Q 2709 -91 1959 -91 
Q 1206 -91 779 398 
Q 353 888 353 1747 
Q 353 2609 779 3096 
Q 1206 3584 1959 3584 
z
" transform="scale(0.015625)"/>
       <path id="DejaVuSans-64" d="M 2906 2969 
L 2906 4863 
L 3481 4863 
L 3481 0 
L 2906 0 
L 2906 525 
Q 2725 213 2448 61 
Q 2172 -91 1784 -91 
Q 1150 -91 751 415 
Q 353 922 353 1747 
Q 353 2572 751 3078 
Q 1150 3584 1784 3584 
Q 2172 3584 2448 3432 
Q 2725 3281 2906 2969 
z
M 947 1747 
Q 947 1113 1208 752 
Q 1469 391 1925 391 
Q 2381 391 2643 752 
Q 2906 1113 2906 1747 
Q 2906 2381 2643 2742 
Q 2381 3103 1925 3103 
Q 1469 3103 1208 2742 
Q 947 2381 947 1747 
z
" transform="scale(0.015625)"/>
       <path id="DejaVuSans-29" d="M 513 4856 
L 1013 4856 
Q 1481 4119 1714 3412 
Q 1947 2706 1947 2009 
Q 1947 1309 1714 600 
Q 1481 -109 1013 -844 
L 513 -844 
Q 928 -128 1133 580 
Q 1338 1288 1338 2009 
Q 1338 2731 1133 3434 
Q 928 4138 513 4856 
z
" transform="scale(0.015625)"/>
      </defs>
      <use xlink:href="#DejaVuSans-7c"/>
      <use xlink:href="#DejaVuSans-56" transform="translate(33.691406 0)"/>
      <use xlink:href="#DejaVuSans-7c" transform="translate(102.099609 0)"/>
      <use xlink:href="#DejaVuSans-2b" transform="translate(135.791016 0)"/>
      <use xlink:href="#DejaVuSans-7c" transform="translate(219.580078 0)"/>
      <use xlink:href="#DejaVuSans-45" transform="translate(253.271484 0)"/>
      <use xlink:href="#DejaVuSans-7c" transform="translate(316.455078 0)"/>
      <use xlink:href="#DejaVuSans-20" transform="translate(350.146484 0)"/>
      <use xlink:href="#DejaVuSans-6e" transform="translate(381.933594 0)"/>
      <use xlink:href="#DejaVuSans-61" transform="translate(445.3125 0)"/>
      <use xlink:href="#DejaVuSans-63" transform="translate(506.591797 0)"/>
      <use xlink:href="#DejaVuSans-68" transform="translate(561.572266 0)"/>
      <use xlink:href="#DejaVuSans-20" transform="translate(624.951172 0)"/>
      <use xlink:href="#DejaVuSans-41" transform="translate(656.738281 0)"/>
      <use xlink:href="#DejaVuSans-75" transform="translate(725.146484 0)"/>
      <use xlink:href="#DejaVuSans-67" transform="translate(788.525391 0)"/>
      <use xlink:href="#DejaVuSans-6d" transform="translate(852.001953 0)"/>
      <use xlink:href="#DejaVuSans-65" transform="translate(949.414062 0)"/>
      <use xlink:href="#DejaVuSans-6e" transform="translate(1010.9375 0)"/>
      <use xlink:href="#DejaVuSans-74" transform="translate(1074.316406 0)"/>
      <use xlink:href="#DejaVuSans-69" transform="translate(1113.525391 0)"/>
      <use xlink:href="#DejaVuSans-65" transform="translate(1141.308594 0)"/>
      <use xlink:href="#DejaVuSans-72" transform="translate(1202.832031 0)"/>
      <use xlink:href="#DejaVuSans-75" transform="translate(1243.945312 0)"/>
      <use xlink:href="#DejaVuSans-6e" transform="translate(1307.324219 0)"/>
      <use xlink:href="#DejaVuSans-67" transform="translate(1370.703125 0)"/>
      <use xlink:href="#DejaVuSans-20" transform="translate(1434.179688 0)"/>
      <use xlink:href="#DejaVuSans-28" transform="translate(1465.966797 0)"/>
      <use xlink:href="#DejaVuSans-73" transform="translate(1504.980469 0)"/>
      <use xlink:href="#DejaVuSans-69" transform="translate(1557.080078 0)"/>
      <use xlink:href="#DejaVuSans-7a" transform="translate(1584.863281 0)"/>
      <use xlink:href="#DejaVuSans-65" transform="translate(1637.353516 0)"/>
      <use xlink:href="#DejaVuSans-5f" transform="translate(1698.876953 0)"/>
      <use xlink:href="#DejaVuSans-70" transform="translate(1748.876953 0)"/>
      <use xlink:href="#DejaVuSans-72" transform="translate(1812.353516 0)"/>
      <use xlink:href="#DejaVuSans-6f" transform="translate(1851.216797 0)"/>
      <use xlink:href="#DejaVuSans-63" transform="translate(1912.398438 0)"/>
      <use xlink:href="#DejaVuSans-65" transform="translate(1967.378906 0)"/>
      <use xlink:href="#DejaVuSans-73" transform="translate(2028.902344 0)"/>
      <use xlink:href="#DejaVuSans-73" transform="translate(2081.001953 0)"/>
      <use xlink:href="#DejaVuSans-65" transform="translate(2133.101562 0)"/>
      <use xlink:href="#DejaVuSans-64" transform="translate(2194.625 0)"/>
      <use xlink:href="#DejaVuSans-29" transform="translate(2258.101562 0)"/>
     </g>
    </g>
   </g>
   <g id="matplotlib.axis_2">
    <g id="ytick_1">
     <g id="line2d_25">
      <path d="M 70.31375 403.91369 
L 919.617638 403.91369 
" clip-path="url(#p4a537b68c0)" style="fill: none; stroke-dasharray: 2.96,1.28; stroke-dashoffset: 0; stroke: #b0b0b0; stroke-opacity: 0.3; stroke-width: 0.8"/>
     </g>
     <g id="line2d_26">
      <defs>
       <path id="m0baf76cd7a" d="M 0 0 
L -3.5 0 
" style="stroke: #000000; stroke-width: 0.8"/>
      </defs>
      <g>
       <use xlink:href="#m0baf76cd7a" x="70.31375" y="403.91369" style="stroke: #000000; stroke-width: 0.8"/>
      </g>
     </g>
     <g id="text_3">
      <!-- $\mathdefault{10^{-3}}$ -->
      <g transform="translate(39.81375 407.712908) scale(0.1 -0.1)">
       <defs>
        <path id="DejaVuSans-2212" d="M 678 2272 
L 4684 2272 
L 4684 1741 
L 678 1741 
L 678 2272 
z
" transform="scale(0.015625)"/>
        <path id="DejaVuSans-33" d="M 2597 2516 
Q 3050 2419 3304 2112 
Q 3559 1806 3559 1356 
Q 3559 666 3084 287 
Q 2609 -91 1734 -91 
Q 1441 -91 1130 -33 
Q 819 25 488 141 
L 488 750 
Q 750 597 1062 519 
Q 1375 441 1716 441 
Q 2309 441 2620 675 
Q 2931 909 2931 1356 
Q 2931 1769 2642 2001 
Q 2353 2234 1838 2234 
L 1294 2234 
L 1294 2753 
L 1863 2753 
Q 2328 2753 2575 2939 
Q 2822 3125 2822 3475 
Q 2822 3834 2567 4026 
Q 2313 4219 1838 4219 
Q 1578 4219 1281 4162 
Q 984 4106 628 3988 
L 628 4550 
Q 988 4650 1302 4700 
Q 1616 4750 1894 4750 
Q 2613 4750 3031 4423 
Q 3450 4097 3450 3541 
Q 3450 3153 3228 2886 
Q 3006 2619 2597 2516 
z
" transform="scale(0.015625)"/>
       </defs>
       <use xlink:href="#DejaVuSans-31" transform="translate(0 0.765625)"/>
       <use xlink:href="#DejaVuSans-30" transform="translate(63.623047 0.765625)"/>
       <use xlink:href="#DejaVuSans-2212" transform="translate(128.203125 39.046875) scale(0.7)"/>
       <use xlink:href="#DejaVuSans-33" transform="translate(186.855469 39.046875) scale(0.7)"/>
      </g>
     </g>
    </g>
    <g id="ytick_2">
     <g id="line2d_27">
      <path d="M 70.31375 519.317093 
L 919.617638 519.317093 
" clip-path="url(#p4a537b68c0)" style="fill: none; stroke-dasharray: 2.96,1.28; stroke-dashoffset: 0; stroke: #b0b0b0; stroke-opacity: 0.3; stroke-width: 0.8"/>
     </g>
     <g id="line2d_28">
      <defs>
       <path id="m03530b3705" d="M 0 0 
L -2 0 
" style="stroke: #000000; stroke-width: 0.6"/>
      </defs>
      <g>
       <use xlink:href="#m03530b3705" x="70.31375" y="519.317093" style="stroke: #000000; stroke-width: 0.6"/>
      </g>
     </g>
     <g id="text_4">
      <!-- $\mathdefault{6\times10^{-4}}$ -->
      <g transform="translate(22.81375 523.116312) scale(0.1 -0.1)">
       <defs>
        <path id="DejaVuSans-36" d="M 2113 2584 
Q 1688 2584 1439 2293 
Q 1191 2003 1191 1497 
Q 1191 994 1439 701 
Q 1688 409 2113 409 
Q 2538 409 2786 701 
Q 3034 994 3034 1497 
Q 3034 2003 2786 2293 
Q 2538 2584 2113 2584 
z
M 3366 4563 
L 3366 3988 
Q 3128 4100 2886 4159 
Q 2644 4219 2406 4219 
Q 1781 4219 1451 3797 
Q 1122 3375 1075 2522 
Q 1259 2794 1537 2939 
Q 1816 3084 2150 3084 
Q 2853 3084 3261 2657 
Q 3669 2231 3669 1497 
Q 3669 778 3244 343 
Q 2819 -91 2113 -91 
Q 1303 -91 875 529 
Q 447 1150 447 2328 
Q 447 3434 972 4092 
Q 1497 4750 2381 4750 
Q 2619 4750 2861 4703 
Q 3103 4656 3366 4563 
z
" transform="scale(0.015625)"/>
        <path id="DejaVuSans-d7" d="M 4488 3438 
L 3059 2003 
L 4488 575 
L 4116 197 
L 2681 1631 
L 1247 197 
L 878 575 
L 2303 2003 
L 878 3438 
L 1247 3816 
L 2681 2381 
L 4116 3816 
L 4488 3438 
z
" transform="scale(0.015625)"/>
        <path id="DejaVuSans-34" d="M 2419 4116 
L 825 1625 
L 2419 1625 
L 2419 4116 
z
M 2253 4666 
L 3047 4666 
L 3047 1625 
L 3713 1625 
L 3713 1100 
L 3047 1100 
L 3047 0 
L 2419 0 
L 2419 1100 
L 313 1100 
L 313 1709 
L 2253 4666 
z
" transform="scale(0.015625)"/>
       </defs>
       <use xlink:href="#DejaVuSans-36" transform="translate(0 0.684375)"/>
       <use xlink:href="#DejaVuSans-d7" transform="translate(83.105469 0.684375)"/>
       <use xlink:href="#DejaVuSans-31" transform="translate(186.376953 0.684375)"/>
       <use xlink:href="#DejaVuSans-30" transform="translate(250 0.684375)"/>
       <use xlink:href="#DejaVuSans-2212" transform="translate(314.580078 38.965625) scale(0.7)"/>
       <use xlink:href="#DejaVuSans-34" transform="translate(373.232422 38.965625) scale(0.7)"/>
      </g>
     </g>
    </g>
    <g id="ytick_3">
     <g id="line2d_29">
      <path d="M 70.31375 484.492072 
L 919.617638 484.492072 
" clip-path="url(#p4a537b68c0)" style="fill: none; stroke-dasharray: 2.96,1.28; stroke-dashoffset: 0; stroke: #b0b0b0; stroke-opacity: 0.3; stroke-width: 0.8"/>
     </g>
     <g id="line2d_30">
      <g>
       <use xlink:href="#m03530b3705" x="70.31375" y="484.492072" style="stroke: #000000; stroke-width: 0.6"/>
      </g>
     </g>
    </g>
    <g id="ytick_4">
     <g id="line2d_31">
      <path d="M 70.31375 454.325267 
L 919.617638 454.325267 
" clip-path="url(#p4a537b68c0)" style="fill: none; stroke-dasharray: 2.96,1.28; stroke-dashoffset: 0; stroke: #b0b0b0; stroke-opacity: 0.3; stroke-width: 0.8"/>
     </g>
     <g id="line2d_32">
      <g>
       <use xlink:href="#m03530b3705" x="70.31375" y="454.325267" style="stroke: #000000; stroke-width: 0.6"/>
      </g>
     </g>
    </g>
    <g id="ytick_5">
     <g id="line2d_33">
      <path d="M 70.31375 427.716258 
L 919.617638 427.716258 
" clip-path="url(#p4a537b68c0)" style="fill: none; stroke-dasharray: 2.96,1.28; stroke-dashoffset: 0; stroke: #b0b0b0; stroke-opacity: 0.3; stroke-width: 0.8"/>
     </g>
     <g id="line2d_34">
      <g>
       <use xlink:href="#m03530b3705" x="70.31375" y="427.716258" style="stroke: #000000; stroke-width: 0.6"/>
      </g>
     </g>
    </g>
    <g id="ytick_6">
     <g id="line2d_35">
      <path d="M 70.31375 247.321029 
L 919.617638 247.321029 
" clip-path="url(#p4a537b68c0)" style="fill: none; stroke-dasharray: 2.96,1.28; stroke-dashoffset: 0; stroke: #b0b0b0; stroke-opacity: 0.3; stroke-width: 0.8"/>
     </g>
     <g id="line2d_36">
      <g>
       <use xlink:href="#m03530b3705" x="70.31375" y="247.321029" style="stroke: #000000; stroke-width: 0.6"/>
      </g>
     </g>
     <g id="text_5">
      <!-- $\mathdefault{2\times10^{-3}}$ -->
      <g transform="translate(22.81375 251.120248) scale(0.1 -0.1)">
       <use xlink:href="#DejaVuSans-32" transform="translate(0 0.765625)"/>
       <use xlink:href="#DejaVuSans-d7" transform="translate(83.105469 0.765625)"/>
       <use xlink:href="#DejaVuSans-31" transform="translate(186.376953 0.765625)"/>
       <use xlink:href="#DejaVuSans-30" transform="translate(250 0.765625)"/>
       <use xlink:href="#DejaVuSans-2212" transform="translate(314.580078 39.046875) scale(0.7)"/>
       <use xlink:href="#DejaVuSans-33" transform="translate(373.232422 39.046875) scale(0.7)"/>
      </g>
     </g>
    </g>
    <g id="ytick_7">
     <g id="line2d_37">
      <path d="M 70.31375 155.720195 
L 919.617638 155.720195 
" clip-path="url(#p4a537b68c0)" style="fill: none; stroke-dasharray: 2.96,1.28; stroke-dashoffset: 0; stroke: #b0b0b0; stroke-opacity: 0.3; stroke-width: 0.8"/>
     </g>
     <g id="line2d_38">
      <g>
       <use xlink:href="#m03530b3705" x="70.31375" y="155.720195" style="stroke: #000000; stroke-width: 0.6"/>
      </g>
     </g>
     <g id="text_6">
      <!-- $\mathdefault{3\times10^{-3}}$ -->
      <g transform="translate(22.81375 159.519413) scale(0.1 -0.1)">
       <use xlink:href="#DejaVuSans-33" transform="translate(0 0.765625)"/>
       <use xlink:href="#DejaVuSans-d7" transform="translate(83.105469 0.765625)"/>
       <use xlink:href="#DejaVuSans-31" transform="translate(186.376953 0.765625)"/>
       <use xlink:href="#DejaVuSans-30" transform="translate(250 0.765625)"/>
       <use xlink:href="#DejaVuSans-2212" transform="translate(314.580078 39.046875) scale(0.7)"/>
       <use xlink:href="#DejaVuSans-33" transform="translate(373.232422 39.046875) scale(0.7)"/>
      </g>
     </g>
    </g>
    <g id="ytick_8">
     <g id="line2d_39">
      <path d="M 70.31375 90.728368 
L 919.617638 90.728368 
" clip-path="url(#p4a537b68c0)" style="fill: none; stroke-dasharray: 2.96,1.28; stroke-dashoffset: 0; stroke: #b0b0b0; stroke-opacity: 0.3; stroke-width: 0.8"/>
     </g>
     <g id="line2d_40">
      <g>
       <use xlink:href="#m03530b3705" x="70.31375" y="90.728368" style="stroke: #000000; stroke-width: 0.6"/>
      </g>
     </g>
     <g id="text_7">
      <!-- $\mathdefault{4\times10^{-3}}$ -->
      <g transform="translate(22.81375 94.527587) scale(0.1 -0.1)">
       <use xlink:href="#DejaVuSans-34" transform="translate(0 0.765625)"/>
       <use xlink:href="#DejaVuSans-d7" transform="translate(83.105469 0.765625)"/>
       <use xlink:href="#DejaVuSans-31" transform="translate(186.376953 0.765625)"/>
       <use xlink:href="#DejaVuSans-30" transform="translate(250 0.765625)"/>
       <use xlink:href="#DejaVuSans-2212" transform="translate(314.580078 39.046875) scale(0.7)"/>
       <use xlink:href="#DejaVuSans-33" transform="translate(373.232422 39.046875) scale(0.7)"/>
      </g>
     </g>
    </g>
    <g id="ytick_9">
     <g id="line2d_41">
      <path d="M 70.31375 40.316791 
L 919.617638 40.316791 
" clip-path="url(#p4a537b68c0)" style="fill: none; stroke-dasharray: 2.96,1.28; stroke-dashoffset: 0; stroke: #b0b0b0; stroke-opacity: 0.3; stroke-width: 0.8"/>
     </g>
     <g id="line2d_42">
      <g>
       <use xlink:href="#m03530b3705" x="70.31375" y="40.316791" style="stroke: #000000; stroke-width: 0.6"/>
      </g>
     </g>
    </g>
    <g id="text_8">
     <!-- Inferenzzeit [s]  (Median über 100 Schritte) -->
     <g transform="translate(16.318125 403.49525) rotate(-90) scale(0.12 -0.12)">
      <defs>
       <path id="DejaVuSans-49" d="M 628 4666 
L 1259 4666 
L 1259 0 
L 628 0 
L 628 4666 
z
" transform="scale(0.015625)"/>
       <path id="DejaVuSans-66" d="M 2375 4863 
L 2375 4384 
L 1825 4384 
Q 1516 4384 1395 4259 
Q 1275 4134 1275 3809 
L 1275 3500 
L 2222 3500 
L 2222 3053 
L 1275 3053 
L 1275 0 
L 697 0 
L 697 3053 
L 147 3053 
L 147 3500 
L 697 3500 
L 697 3744 
Q 697 4328 969 4595 
Q 1241 4863 1831 4863 
L 2375 4863 
z
" transform="scale(0.015625)"/>
       <path id="DejaVuSans-5b" d="M 550 4863 
L 1875 4863 
L 1875 4416 
L 1125 4416 
L 1125 -397 
L 1875 -397 
L 1875 -844 
L 550 -844 
L 550 4863 
z
" transform="scale(0.015625)"/>
       <path id="DejaVuSans-5d" d="M 1947 4863 
L 1947 -844 
L 622 -844 
L 622 -397 
L 1369 -397 
L 1369 4416 
L 622 4416 
L 622 4863 
L 1947 4863 
z
" transform="scale(0.015625)"/>
       <path id="DejaVuSans-4d" d="M 628 4666 
L 1569 4666 
L 2759 1491 
L 3956 4666 
L 4897 4666 
L 4897 0 
L 4281 0 
L 4281 4097 
L 3078 897 
L 2444 897 
L 1241 4097 
L 1241 0 
L 628 0 
L 628 4666 
z
" transform="scale(0.015625)"/>
       <path id="DejaVuSans-fc" d="M 544 1381 
L 544 3500 
L 1119 3500 
L 1119 1403 
Q 1119 906 1312 657 
Q 1506 409 1894 409 
Q 2359 409 2629 706 
Q 2900 1003 2900 1516 
L 2900 3500 
L 3475 3500 
L 3475 0 
L 2900 0 
L 2900 538 
Q 2691 219 2414 64 
Q 2138 -91 1772 -91 
Q 1169 -91 856 284 
Q 544 659 544 1381 
z
M 1991 3584 
L 1991 3584 
z
M 2278 4850 
L 2912 4850 
L 2912 4219 
L 2278 4219 
L 2278 4850 
z
M 1056 4850 
L 1690 4850 
L 1690 4219 
L 1056 4219 
L 1056 4850 
z
" transform="scale(0.015625)"/>
       <path id="DejaVuSans-62" d="M 3116 1747 
Q 3116 2381 2855 2742 
Q 2594 3103 2138 3103 
Q 1681 3103 1420 2742 
Q 1159 2381 1159 1747 
Q 1159 1113 1420 752 
Q 1681 391 2138 391 
Q 2594 391 2855 752 
Q 3116 1113 3116 1747 
z
M 1159 2969 
Q 1341 3281 1617 3432 
Q 1894 3584 2278 3584 
Q 2916 3584 3314 3078 
Q 3713 2572 3713 1747 
Q 3713 922 3314 415 
Q 2916 -91 2278 -91 
Q 1894 -91 1617 61 
Q 1341 213 1159 525 
L 1159 0 
L 581 0 
L 581 4863 
L 1159 4863 
L 1159 2969 
z
" transform="scale(0.015625)"/>
       <path id="DejaVuSans-53" d="M 3425 4513 
L 3425 3897 
Q 3066 4069 2747 4153 
Q 2428 4238 2131 4238 
Q 1616 4238 1336 4038 
Q 1056 3838 1056 3469 
Q 1056 3159 1242 3001 
Q 1428 2844 1947 2747 
L 2328 2669 
Q 3034 2534 3370 2195 
Q 3706 1856 3706 1288 
Q 3706 609 3251 259 
Q 2797 -91 1919 -91 
Q 1588 -91 1214 -16 
Q 841 59 441 206 
L 441 856 
Q 825 641 1194 531 
Q 1563 422 1919 422 
Q 2459 422 2753 634 
Q 3047 847 3047 1241 
Q 3047 1584 2836 1778 
Q 2625 1972 2144 2069 
L 1759 2144 
Q 1053 2284 737 2584 
Q 422 2884 422 3419 
Q 422 4038 858 4394 
Q 1294 4750 2059 4750 
Q 2388 4750 2728 4690 
Q 3069 4631 3425 4513 
z
" transform="scale(0.015625)"/>
      </defs>
      <use xlink:href="#DejaVuSans-49"/>
      <use xlink:href="#DejaVuSans-6e" transform="translate(29.492188 0)"/>
      <use xlink:href="#DejaVuSans-66" transform="translate(92.871094 0)"/>
      <use xlink:href="#DejaVuSans-65" transform="translate(128.076172 0)"/>
      <use xlink:href="#DejaVuSans-72" transform="translate(189.599609 0)"/>
      <use xlink:href="#DejaVuSans-65" transform="translate(228.462891 0)"/>
      <use xlink:href="#DejaVuSans-6e" transform="translate(289.986328 0)"/>
      <use xlink:href="#DejaVuSans-7a" transform="translate(353.365234 0)"/>
      <use xlink:href="#DejaVuSans-7a" transform="translate(405.855469 0)"/>
      <use xlink:href="#DejaVuSans-65" transform="translate(458.345703 0)"/>
      <use xlink:href="#DejaVuSans-69" transform="translate(519.869141 0)"/>
      <use xlink:href="#DejaVuSans-74" transform="translate(547.652344 0)"/>
      <use xlink:href="#DejaVuSans-20" transform="translate(586.861328 0)"/>
      <use xlink:href="#DejaVuSans-5b" transform="translate(618.648438 0)"/>
      <use xlink:href="#DejaVuSans-73" transform="translate(657.662109 0)"/>
      <use xlink:href="#DejaVuSans-5d" transform="translate(709.761719 0)"/>
      <use xlink:href="#DejaVuSans-20" transform="translate(748.775391 0)"/>
      <use xlink:href="#DejaVuSans-20" transform="translate(780.5625 0)"/>
      <use xlink:href="#DejaVuSans-28" transform="translate(812.349609 0)"/>
      <use xlink:href="#DejaVuSans-4d" transform="translate(851.363281 0)"/>
      <use xlink:href="#DejaVuSans-65" transform="translate(937.642578 0)"/>
      <use xlink:href="#DejaVuSans-64" transform="translate(999.166016 0)"/>
      <use xlink:href="#DejaVuSans-69" transform="translate(1062.642578 0)"/>
      <use xlink:href="#DejaVuSans-61" transform="translate(1090.425781 0)"/>
      <use xlink:href="#DejaVuSans-6e" transform="translate(1151.705078 0)"/>
      <use xlink:href="#DejaVuSans-20" transform="translate(1215.083984 0)"/>
      <use xlink:href="#DejaVuSans-fc" transform="translate(1246.871094 0)"/>
      <use xlink:href="#DejaVuSans-62" transform="translate(1310.25 0)"/>
      <use xlink:href="#DejaVuSans-65" transform="translate(1373.726562 0)"/>
      <use xlink:href="#DejaVuSans-72" transform="translate(1435.25 0)"/>
      <use xlink:href="#DejaVuSans-20" transform="translate(1476.363281 0)"/>
      <use xlink:href="#DejaVuSans-31" transform="translate(1508.150391 0)"/>
      <use xlink:href="#DejaVuSans-30" transform="translate(1571.773438 0)"/>
      <use xlink:href="#DejaVuSans-30" transform="translate(1635.396484 0)"/>
      <use xlink:href="#DejaVuSans-20" transform="translate(1699.019531 0)"/>
      <use xlink:href="#DejaVuSans-53" transform="translate(1730.806641 0)"/>
      <use xlink:href="#DejaVuSans-63" transform="translate(1794.283203 0)"/>
      <use xlink:href="#DejaVuSans-68" transform="translate(1849.263672 0)"/>
      <use xlink:href="#DejaVuSans-72" transform="translate(1912.642578 0)"/>
      <use xlink:href="#DejaVuSans-69" transform="translate(1953.755859 0)"/>
      <use xlink:href="#DejaVuSans-74" transform="translate(1981.539062 0)"/>
      <use xlink:href="#DejaVuSans-74" transform="translate(2020.748047 0)"/>
      <use xlink:href="#DejaVuSans-65" transform="translate(2059.957031 0)"/>
      <use xlink:href="#DejaVuSans-29" transform="translate(2121.480469 0)"/>
     </g>
    </g>
   </g>
   <g id="line2d_43">
    <path d="M 108.918472 379.245355 
L 296.959186 485.099493 
L 296.959186 485.099493 
" clip-path="url(#p4a537b68c0)" style="fill: none; stroke: #e41a1c; stroke-width: 1.8; stroke-linecap: square"/>
   </g>
   <g id="line2d_44">
    <path d="M 210.31384 447.763264 
L 400.738219 435.20054 
L 400.738219 435.20054 
" clip-path="url(#p4a537b68c0)" style="fill: none; stroke: #377eb8; stroke-width: 1.8; stroke-linecap: square"/>
   </g>
   <g id="line2d_45">
    <path d="M 581.9867 113.048523 
L 742.117193 304.305108 
L 742.117193 304.305108 
" clip-path="url(#p4a537b68c0)" style="fill: none; stroke: #4daf4a; stroke-width: 1.8; stroke-linecap: square"/>
   </g>
   <g id="line2d_46">
    <path d="M 345.748854 209.96644 
L 698.323736 205.178022 
L 698.323736 205.178022 
" clip-path="url(#p4a537b68c0)" style="fill: none; stroke: #984ea3; stroke-width: 1.8; stroke-linecap: square"/>
   </g>
   <g id="line2d_47">
    <path d="M 532.502513 379.515608 
L 881.012916 286.940173 
L 881.012916 286.940173 
" clip-path="url(#p4a537b68c0)" style="fill: none; stroke: #ff7f00; stroke-width: 1.8; stroke-linecap: square"/>
   </g>
   <g id="line2d_48">
    <path d="M 581.9867 96.288022 
L 742.117193 190.068863 
L 742.117193 190.068863 
" clip-path="url(#p4a537b68c0)" style="fill: none; stroke: #a65628; stroke-width: 1.8; stroke-linecap: square"/>
   </g>
   <g id="line2d_49">
    <path d="M 382.05268 353.641587 
L 733.420886 154.410397 
L 733.420886 154.410397 
" clip-path="url(#p4a537b68c0)" style="fill: none; stroke: #f781bf; stroke-width: 1.8; stroke-linecap: square"/>
   </g>
   <g id="line2d_50">
    <path d="M 599.42558 337.048565 
L 772.099971 138.469894 
L 772.099971 138.469894 
" clip-path="url(#p4a537b68c0)" style="fill: none; stroke: #999999; stroke-width: 1.8; stroke-linecap: square"/>
   </g>
   <g id="patch_3">
    <path d="M 70.31375 523.894563 
L 70.31375 23.837813 
" style="fill: none; stroke: #000000; stroke-width: 0.8; stroke-linejoin: miter; stroke-linecap: square"/>
   </g>
   <g id="patch_4">
    <path d="M 919.617638 523.894563 
L 919.617638 23.837813 
" style="fill: none; stroke: #000000; stroke-width: 0.8; stroke-linejoin: miter; stroke-linecap: square"/>
   </g>
   <g id="patch_5">
    <path d="M 70.31375 523.894563 
L 919.617638 523.894563 
" style="fill: none; stroke: #000000; stroke-width: 0.8; stroke-linejoin: miter; stroke-linecap: square"/>
   </g>
   <g id="patch_6">
    <path d="M 70.31375 23.837813 
L 919.617638 23.837813 
" style="fill: none; stroke: #000000; stroke-width: 0.8; stroke-linejoin: miter; stroke-linecap: square"/>
   </g>
   <g id="PathCollection_1">
    <defs>
     <path id="m6c55f7f391" d="M 0 2.345208 
C 0.621956 2.345208 1.218523 2.098102 1.658312 1.658312 
C 2.098102 1.218523 2.345208 0.621956 2.345208 0 
C 2.345208 -0.621956 2.098102 -1.218523 1.658312 -1.658312 
C 1.218523 -2.098102 0.621956 -2.345208 0 -2.345208 
C -0.621956 -2.345208 -1.218523 -2.098102 -1.658312 -1.658312 
C -2.098102 -1.218523 -2.345208 -0.621956 -2.345208 0 
C -2.345208 0.621956 -2.098102 1.218523 -1.658312 1.658312 
C -1.218523 2.098102 -0.621956 2.345208 0 2.345208 
z
" style="stroke: #e41a1c; stroke-opacity: 0.45"/>
    </defs>
    <g clip-path="url(#p4a537b68c0)">
     <use xlink:href="#m6c55f7f391" x="296.959186" y="473.423521" style="fill: #e41a1c; fill-opacity: 0.45; stroke: #e41a1c; stroke-opacity: 0.45"/>
     <use xlink:href="#m6c55f7f391" x="296.959186" y="453.944358" style="fill: #e41a1c; fill-opacity: 0.45; stroke: #e41a1c; stroke-opacity: 0.45"/>
     <use xlink:href="#m6c55f7f391" x="158.876796" y="492.173215" style="fill: #e41a1c; fill-opacity: 0.45; stroke: #e41a1c; stroke-opacity: 0.45"/>
     <use xlink:href="#m6c55f7f391" x="219.489739" y="496.317953" style="fill: #e41a1c; fill-opacity: 0.45; stroke: #e41a1c; stroke-opacity: 0.45"/>
     <use xlink:href="#m6c55f7f391" x="219.489739" y="482.707948" style="fill: #e41a1c; fill-opacity: 0.45; stroke: #e41a1c; stroke-opacity: 0.45"/>
     <use xlink:href="#m6c55f7f391" x="135.088924" y="134.037592" style="fill: #e41a1c; fill-opacity: 0.45; stroke: #e41a1c; stroke-opacity: 0.45"/>
     <use xlink:href="#m6c55f7f391" x="108.918472" y="501.16471" style="fill: #e41a1c; fill-opacity: 0.45; stroke: #e41a1c; stroke-opacity: 0.45"/>
    </g>
   </g>
   <g id="PathCollection_2">
    <defs>
     <path id="m7d9ceaf83e" d="M 0 2.345208 
C 0.621956 2.345208 1.218523 2.098102 1.658312 1.658312 
C 2.098102 1.218523 2.345208 0.621956 2.345208 0 
C 2.345208 -0.621956 2.098102 -1.218523 1.658312 -1.658312 
C 1.218523 -2.098102 0.621956 -2.345208 0 -2.345208 
C -0.621956 -2.345208 -1.218523 -2.098102 -1.658312 -1.658312 
C -2.098102 -1.218523 -2.345208 -0.621956 -2.345208 0 
C -2.345208 0.621956 -2.098102 1.218523 -1.658312 1.658312 
C -1.218523 2.098102 -0.621956 2.345208 0 2.345208 
z
" style="stroke: #377eb8; stroke-opacity: 0.45"/>
    </defs>
    <g clip-path="url(#p4a537b68c0)">
     <use xlink:href="#m7d9ceaf83e" x="400.738219" y="469.705164" style="fill: #377eb8; fill-opacity: 0.45; stroke: #377eb8; stroke-opacity: 0.45"/>
     <use xlink:href="#m7d9ceaf83e" x="400.738219" y="353.836718" style="fill: #377eb8; fill-opacity: 0.45; stroke: #377eb8; stroke-opacity: 0.45"/>
     <use xlink:href="#m7d9ceaf83e" x="261.082975" y="368.511615" style="fill: #377eb8; fill-opacity: 0.45; stroke: #377eb8; stroke-opacity: 0.45"/>
     <use xlink:href="#m7d9ceaf83e" x="322.490307" y="498.522187" style="fill: #377eb8; fill-opacity: 0.45; stroke: #377eb8; stroke-opacity: 0.45"/>
     <use xlink:href="#m7d9ceaf83e" x="322.490307" y="483.734914" style="fill: #377eb8; fill-opacity: 0.45; stroke: #377eb8; stroke-opacity: 0.45"/>
     <use xlink:href="#m7d9ceaf83e" x="236.928619" y="498.127607" style="fill: #377eb8; fill-opacity: 0.45; stroke: #377eb8; stroke-opacity: 0.45"/>
     <use xlink:href="#m7d9ceaf83e" x="210.31384" y="416.872938" style="fill: #377eb8; fill-opacity: 0.45; stroke: #377eb8; stroke-opacity: 0.45"/>
    </g>
   </g>
   <g id="PathCollection_3">
    <defs>
     <path id="mde9fa2c08a" d="M 0 2.345208 
C 0.621956 2.345208 1.218523 2.098102 1.658312 1.658312 
C 2.098102 1.218523 2.345208 0.621956 2.345208 0 
C 2.345208 -0.621956 2.098102 -1.218523 1.658312 -1.658312 
C 1.218523 -2.098102 0.621956 -2.345208 0 -2.345208 
C -0.621956 -2.345208 -1.218523 -2.098102 -1.658312 -1.658312 
C -2.098102 -1.218523 -2.345208 -0.621956 -2.345208 0 
C -2.345208 0.621956 -2.098102 1.218523 -1.658312 1.658312 
C -1.218523 2.098102 -0.621956 2.345208 0 2.345208 
z
" style="stroke: #4daf4a; stroke-opacity: 0.45"/>
    </defs>
    <g clip-path="url(#p4a537b68c0)">
     <use xlink:href="#mde9fa2c08a" x="742.117193" y="242.145074" style="fill: #4daf4a; fill-opacity: 0.45; stroke: #4daf4a; stroke-opacity: 0.45"/>
     <use xlink:href="#mde9fa2c08a" x="713.750993" y="337.264571" style="fill: #4daf4a; fill-opacity: 0.45; stroke: #4daf4a; stroke-opacity: 0.45"/>
     <use xlink:href="#mde9fa2c08a" x="642.132842" y="172.532352" style="fill: #4daf4a; fill-opacity: 0.45; stroke: #4daf4a; stroke-opacity: 0.45"/>
     <use xlink:href="#mde9fa2c08a" x="590.851491" y="46.567665" style="fill: #4daf4a; fill-opacity: 0.45; stroke: #4daf4a; stroke-opacity: 0.45"/>
     <use xlink:href="#mde9fa2c08a" x="581.9867" y="106.271561" style="fill: #4daf4a; fill-opacity: 0.45; stroke: #4daf4a; stroke-opacity: 0.45"/>
     <use xlink:href="#mde9fa2c08a" x="696.875055" y="147.105954" style="fill: #4daf4a; fill-opacity: 0.45; stroke: #4daf4a; stroke-opacity: 0.45"/>
     <use xlink:href="#mde9fa2c08a" x="656.082084" y="396.229205" style="fill: #4daf4a; fill-opacity: 0.45; stroke: #4daf4a; stroke-opacity: 0.45"/>
    </g>
   </g>
   <g id="PathCollection_4">
    <defs>
     <path id="m273d0f4b7f" d="M 0 2.345208 
C 0.621956 2.345208 1.218523 2.098102 1.658312 1.658312 
C 2.098102 1.218523 2.345208 0.621956 2.345208 0 
C 2.345208 -0.621956 2.098102 -1.218523 1.658312 -1.658312 
C 1.218523 -2.098102 0.621956 -2.345208 0 -2.345208 
C -0.621956 -2.345208 -1.218523 -2.098102 -1.658312 -1.658312 
C -2.098102 -1.218523 -2.345208 -0.621956 -2.345208 0 
C -2.345208 0.621956 -2.098102 1.218523 -1.658312 1.658312 
C -1.218523 2.098102 -0.621956 2.345208 0 2.345208 
z
" style="stroke: #984ea3; stroke-opacity: 0.45"/>
    </defs>
    <g clip-path="url(#p4a537b68c0)">
     <use xlink:href="#m273d0f4b7f" x="698.323736" y="327.673608" style="fill: #984ea3; fill-opacity: 0.45; stroke: #984ea3; stroke-opacity: 0.45"/>
     <use xlink:href="#m273d0f4b7f" x="698.323736" y="48.068398" style="fill: #984ea3; fill-opacity: 0.45; stroke: #984ea3; stroke-opacity: 0.45"/>
     <use xlink:href="#m273d0f4b7f" x="625.495595" y="309.699799" style="fill: #984ea3; fill-opacity: 0.45; stroke: #984ea3; stroke-opacity: 0.45"/>
     <use xlink:href="#m273d0f4b7f" x="524.200663" y="129.956183" style="fill: #984ea3; fill-opacity: 0.45; stroke: #984ea3; stroke-opacity: 0.45"/>
     <use xlink:href="#m273d0f4b7f" x="512.70491" y="49.967792" style="fill: #984ea3; fill-opacity: 0.45; stroke: #984ea3; stroke-opacity: 0.45"/>
     <use xlink:href="#m273d0f4b7f" x="460.884361" y="411.821881" style="fill: #984ea3; fill-opacity: 0.45; stroke: #984ea3; stroke-opacity: 0.45"/>
     <use xlink:href="#m273d0f4b7f" x="345.748854" y="172.946498" style="fill: #984ea3; fill-opacity: 0.45; stroke: #984ea3; stroke-opacity: 0.45"/>
    </g>
   </g>
   <g id="PathCollection_5">
    <defs>
     <path id="mecf56b0e2d" d="M 0 2.345208 
C 0.621956 2.345208 1.218523 2.098102 1.658312 1.658312 
C 2.098102 1.218523 2.345208 0.621956 2.345208 0 
C 2.345208 -0.621956 2.098102 -1.218523 1.658312 -1.658312 
C 1.218523 -2.098102 0.621956 -2.345208 0 -2.345208 
C -0.621956 -2.345208 -1.218523 -2.098102 -1.658312 -1.658312 
C -2.098102 -1.218523 -2.345208 -0.621956 -2.345208 0 
C -2.345208 0.621956 -2.098102 1.218523 -1.658312 1.658312 
C -1.218523 2.098102 -0.621956 2.345208 0 2.345208 
z
" style="stroke: #ff7f00; stroke-opacity: 0.45"/>
    </defs>
    <g clip-path="url(#p4a537b68c0)">
     <use xlink:href="#mecf56b0e2d" x="881.012916" y="350.08513" style="fill: #ff7f00; fill-opacity: 0.45; stroke: #ff7f00; stroke-opacity: 0.45"/>
     <use xlink:href="#mecf56b0e2d" x="881.012916" y="345.459713" style="fill: #ff7f00; fill-opacity: 0.45; stroke: #ff7f00; stroke-opacity: 0.45"/>
     <use xlink:href="#mecf56b0e2d" x="808.645802" y="227.935024" style="fill: #ff7f00; fill-opacity: 0.45; stroke: #ff7f00; stroke-opacity: 0.45"/>
     <use xlink:href="#mecf56b0e2d" x="708.245815" y="323.18851" style="fill: #ff7f00; fill-opacity: 0.45; stroke: #ff7f00; stroke-opacity: 0.45"/>
     <use xlink:href="#mecf56b0e2d" x="696.875055" y="181.257198" style="fill: #ff7f00; fill-opacity: 0.45; stroke: #ff7f00; stroke-opacity: 0.45"/>
     <use xlink:href="#mecf56b0e2d" x="645.690533" y="405.171012" style="fill: #ff7f00; fill-opacity: 0.45; stroke: #ff7f00; stroke-opacity: 0.45"/>
     <use xlink:href="#mecf56b0e2d" x="532.502513" y="444.597462" style="fill: #ff7f00; fill-opacity: 0.45; stroke: #ff7f00; stroke-opacity: 0.45"/>
    </g>
   </g>
   <g id="PathCollection_6">
    <defs>
     <path id="mfe669e7191" d="M 0 2.345208 
C 0.621956 2.345208 1.218523 2.098102 1.658312 1.658312 
C 2.098102 1.218523 2.345208 0.621956 2.345208 0 
C 2.345208 -0.621956 2.098102 -1.218523 1.658312 -1.658312 
C 1.218523 -2.098102 0.621956 -2.345208 0 -2.345208 
C -0.621956 -2.345208 -1.218523 -2.098102 -1.658312 -1.658312 
C -2.098102 -1.218523 -2.345208 -0.621956 -2.345208 0 
C -2.345208 0.621956 -2.098102 1.218523 -1.658312 1.658312 
C -1.218523 2.098102 -0.621956 2.345208 0 2.345208 
z
" style="stroke: #a65628; stroke-opacity: 0.45"/>
    </defs>
    <g clip-path="url(#p4a537b68c0)">
     <use xlink:href="#mfe669e7191" x="742.117193" y="246.256093" style="fill: #a65628; fill-opacity: 0.45; stroke: #a65628; stroke-opacity: 0.45"/>
     <use xlink:href="#mfe669e7191" x="713.750993" y="115.477338" style="fill: #a65628; fill-opacity: 0.45; stroke: #a65628; stroke-opacity: 0.45"/>
     <use xlink:href="#mfe669e7191" x="642.132842" y="149.042368" style="fill: #a65628; fill-opacity: 0.45; stroke: #a65628; stroke-opacity: 0.45"/>
     <use xlink:href="#mfe669e7191" x="590.851491" y="77.684438" style="fill: #a65628; fill-opacity: 0.45; stroke: #a65628; stroke-opacity: 0.45"/>
     <use xlink:href="#mfe669e7191" x="581.9867" y="88.589477" style="fill: #a65628; fill-opacity: 0.45; stroke: #a65628; stroke-opacity: 0.45"/>
     <use xlink:href="#mfe669e7191" x="696.875055" y="80.995154" style="fill: #a65628; fill-opacity: 0.45; stroke: #a65628; stroke-opacity: 0.45"/>
     <use xlink:href="#mfe669e7191" x="656.082084" y="238.01548" style="fill: #a65628; fill-opacity: 0.45; stroke: #a65628; stroke-opacity: 0.45"/>
    </g>
   </g>
   <g id="PathCollection_7">
    <defs>
     <path id="ma5edcbaede" d="M 0 2.345208 
C 0.621956 2.345208 1.218523 2.098102 1.658312 1.658312 
C 2.098102 1.218523 2.345208 0.621956 2.345208 0 
C 2.345208 -0.621956 2.098102 -1.218523 1.658312 -1.658312 
C 1.218523 -2.098102 0.621956 -2.345208 0 -2.345208 
C -0.621956 -2.345208 -1.218523 -2.098102 -1.658312 -1.658312 
C -2.098102 -1.218523 -2.345208 -0.621956 -2.345208 0 
C -2.345208 0.621956 -2.098102 1.218523 -1.658312 1.658312 
C -1.218523 2.098102 -0.621956 2.345208 0 2.345208 
z
" style="stroke: #f781bf; stroke-opacity: 0.45"/>
    </defs>
    <g clip-path="url(#p4a537b68c0)">
     <use xlink:href="#ma5edcbaede" x="733.420886" y="128.202627" style="fill: #f781bf; fill-opacity: 0.45; stroke: #f781bf; stroke-opacity: 0.45"/>
     <use xlink:href="#ma5edcbaede" x="733.420886" y="230.746374" style="fill: #f781bf; fill-opacity: 0.45; stroke: #f781bf; stroke-opacity: 0.45"/>
     <use xlink:href="#ma5edcbaede" x="659.456147" y="114.961182" style="fill: #f781bf; fill-opacity: 0.45; stroke: #f781bf; stroke-opacity: 0.45"/>
     <use xlink:href="#ma5edcbaede" x="545.778779" y="307.684151" style="fill: #f781bf; fill-opacity: 0.45; stroke: #f781bf; stroke-opacity: 0.45"/>
     <use xlink:href="#ma5edcbaede" x="535.212239" y="358.869875" style="fill: #f781bf; fill-opacity: 0.45; stroke: #f781bf; stroke-opacity: 0.45"/>
     <use xlink:href="#ma5edcbaede" x="484.827926" y="131.777568" style="fill: #f781bf; fill-opacity: 0.45; stroke: #f781bf; stroke-opacity: 0.45"/>
     <use xlink:href="#ma5edcbaede" x="382.05268" y="409.540708" style="fill: #f781bf; fill-opacity: 0.45; stroke: #f781bf; stroke-opacity: 0.45"/>
    </g>
   </g>
   <g id="PathCollection_8">
    <defs>
     <path id="m9d453f63d9" d="M 0 2.345208 
C 0.621956 2.345208 1.218523 2.098102 1.658312 1.658312 
C 2.098102 1.218523 2.345208 0.621956 2.345208 0 
C 2.345208 -0.621956 2.098102 -1.218523 1.658312 -1.658312 
C 1.218523 -2.098102 0.621956 -2.345208 0 -2.345208 
C -0.621956 -2.345208 -1.218523 -2.098102 -1.658312 -1.658312 
C -2.098102 -1.218523 -2.345208 -0.621956 -2.345208 0 
C -2.345208 0.621956 -2.098102 1.218523 -1.658312 1.658312 
C -1.218523 2.098102 -0.621956 2.345208 0 2.345208 
z
" style="stroke: #999999; stroke-opacity: 0.45"/>
    </defs>
    <g clip-path="url(#p4a537b68c0)">
     <use xlink:href="#m9d453f63d9" x="772.099971" y="146.385849" style="fill: #999999; fill-opacity: 0.45; stroke: #999999; stroke-opacity: 0.45"/>
     <use xlink:href="#m9d453f63d9" x="746.95967" y="108.897399" style="fill: #999999; fill-opacity: 0.45; stroke: #999999; stroke-opacity: 0.45"/>
     <use xlink:href="#m9d453f63d9" x="674.122773" y="320.143189" style="fill: #999999; fill-opacity: 0.45; stroke: #999999; stroke-opacity: 0.45"/>
     <use xlink:href="#m9d453f63d9" x="607.727429" y="390.387814" style="fill: #999999; fill-opacity: 0.45; stroke: #999999; stroke-opacity: 0.45"/>
     <use xlink:href="#m9d453f63d9" x="599.42558" y="216.76556" style="fill: #999999; fill-opacity: 0.45; stroke: #999999; stroke-opacity: 0.45"/>
     <use xlink:href="#m9d453f63d9" x="706.851219" y="186.041966" style="fill: #999999; fill-opacity: 0.45; stroke: #999999; stroke-opacity: 0.45"/>
     <use xlink:href="#m9d453f63d9" x="667.70561" y="324.957543" style="fill: #999999; fill-opacity: 0.45; stroke: #999999; stroke-opacity: 0.45"/>
    </g>
   </g>
   <g id="text_9">
    <!-- GINConv Inferenzzeit vs. Graphgröße — Log-Log-Plot -->
    <g transform="translate(310.38335 17.837813) scale(0.14 -0.14)">
     <defs>
      <path id="DejaVuSans-47" d="M 3809 666 
L 3809 1919 
L 2778 1919 
L 2778 2438 
L 4434 2438 
L 4434 434 
Q 4069 175 3628 42 
Q 3188 -91 2688 -91 
Q 1594 -91 976 548 
Q 359 1188 359 2328 
Q 359 3472 976 4111 
Q 1594 4750 2688 4750 
Q 3144 4750 3555 4637 
Q 3966 4525 4313 4306 
L 4313 3634 
Q 3963 3931 3569 4081 
Q 3175 4231 2741 4231 
Q 1884 4231 1454 3753 
Q 1025 3275 1025 2328 
Q 1025 1384 1454 906 
Q 1884 428 2741 428 
Q 3075 428 3337 486 
Q 3600 544 3809 666 
z
" transform="scale(0.015625)"/>
      <path id="DejaVuSans-4e" d="M 628 4666 
L 1478 4666 
L 3547 763 
L 3547 4666 
L 4159 4666 
L 4159 0 
L 3309 0 
L 1241 3903 
L 1241 0 
L 628 0 
L 628 4666 
z
" transform="scale(0.015625)"/>
      <path id="DejaVuSans-43" d="M 4122 4306 
L 4122 3641 
Q 3803 3938 3442 4084 
Q 3081 4231 2675 4231 
Q 1875 4231 1450 3742 
Q 1025 3253 1025 2328 
Q 1025 1406 1450 917 
Q 1875 428 2675 428 
Q 3081 428 3442 575 
Q 3803 722 4122 1019 
L 4122 359 
Q 3791 134 3420 21 
Q 3050 -91 2638 -91 
Q 1578 -91 968 557 
Q 359 1206 359 2328 
Q 359 3453 968 4101 
Q 1578 4750 2638 4750 
Q 3056 4750 3426 4639 
Q 3797 4528 4122 4306 
z
" transform="scale(0.015625)"/>
      <path id="DejaVuSans-76" d="M 191 3500 
L 800 3500 
L 1894 563 
L 2988 3500 
L 3597 3500 
L 2284 0 
L 1503 0 
L 191 3500 
z
" transform="scale(0.015625)"/>
      <path id="DejaVuSans-2e" d="M 684 794 
L 1344 794 
L 1344 0 
L 684 0 
L 684 794 
z
" transform="scale(0.015625)"/>
      <path id="DejaVuSans-f6" d="M 1959 3097 
Q 1497 3097 1228 2736 
Q 959 2375 959 1747 
Q 959 1119 1226 758 
Q 1494 397 1959 397 
Q 2419 397 2687 759 
Q 2956 1122 2956 1747 
Q 2956 2369 2687 2733 
Q 2419 3097 1959 3097 
z
M 1959 3584 
Q 2709 3584 3137 3096 
Q 3566 2609 3566 1747 
Q 3566 888 3137 398 
Q 2709 -91 1959 -91 
Q 1206 -91 779 398 
Q 353 888 353 1747 
Q 353 2609 779 3096 
Q 1206 3584 1959 3584 
z
M 2254 4850 
L 2888 4850 
L 2888 4219 
L 2254 4219 
L 2254 4850 
z
M 1032 4850 
L 1666 4850 
L 1666 4219 
L 1032 4219 
L 1032 4850 
z
" transform="scale(0.015625)"/>
      <path id="DejaVuSans-df" d="M 581 3553 
Q 581 4178 954 4520 
Q 1328 4863 2009 4863 
Q 2659 4863 3001 4500 
Q 3344 4138 3353 3438 
Q 2881 3413 2618 3233 
Q 2356 3053 2356 2753 
Q 2356 2606 2447 2479 
Q 2538 2353 2741 2222 
L 2919 2106 
Q 3438 1775 3588 1553 
Q 3738 1331 3738 1019 
Q 3738 481 3386 195 
Q 3034 -91 2375 -91 
Q 2175 -91 1962 -52 
Q 1750 -13 1522 63 
L 1522 575 
Q 1772 481 1990 436 
Q 2209 391 2413 391 
Q 2775 391 2962 539 
Q 3150 688 3150 972 
Q 3150 1169 3058 1300 
Q 2966 1431 2650 1625 
L 2363 1797 
Q 2063 1981 1927 2192 
Q 1791 2403 1791 2688 
Q 1791 3084 2052 3353 
Q 2313 3622 2784 3713 
Q 2759 4034 2554 4209 
Q 2350 4384 1997 4384 
Q 1591 4384 1378 4167 
Q 1166 3950 1166 3541 
L 1166 0 
L 581 0 
L 581 3553 
z
" transform="scale(0.015625)"/>
      <path id="DejaVuSans-2014" d="M 313 1978 
L 6088 1978 
L 6088 1528 
L 313 1528 
L 313 1978 
z
" transform="scale(0.015625)"/>
      <path id="DejaVuSans-4c" d="M 628 4666 
L 1259 4666 
L 1259 531 
L 3531 531 
L 3531 0 
L 628 0 
L 628 4666 
z
" transform="scale(0.015625)"/>
      <path id="DejaVuSans-2d" d="M 313 2009 
L 1997 2009 
L 1997 1497 
L 313 1497 
L 313 2009 
z
" transform="scale(0.015625)"/>
      <path id="DejaVuSans-50" d="M 1259 4147 
L 1259 2394 
L 2053 2394 
Q 2494 2394 2734 2622 
Q 2975 2850 2975 3272 
Q 2975 3691 2734 3919 
Q 2494 4147 2053 4147 
L 1259 4147 
z
M 628 4666 
L 2053 4666 
Q 2838 4666 3239 4311 
Q 3641 3956 3641 3272 
Q 3641 2581 3239 2228 
Q 2838 1875 2053 1875 
L 1259 1875 
L 1259 0 
L 628 0 
L 628 4666 
z
" transform="scale(0.015625)"/>
      <path id="DejaVuSans-6c" d="M 603 4863 
L 1178 4863 
L 1178 0 
L 603 0 
L 603 4863 
z
" transform="scale(0.015625)"/>
     </defs>
     <use xlink:href="#DejaVuSans-47"/>
     <use xlink:href="#DejaVuSans-49" transform="translate(77.490234 0)"/>
     <use xlink:href="#DejaVuSans-4e" transform="translate(106.982422 0)"/>
     <use xlink:href="#DejaVuSans-43" transform="translate(181.787109 0)"/>
     <use xlink:href="#DejaVuSans-6f" transform="translate(251.611328 0)"/>
     <use xlink:href="#DejaVuSans-6e" transform="translate(312.792969 0)"/>
     <use xlink:href="#DejaVuSans-76" transform="translate(376.171875 0)"/>
     <use xlink:href="#DejaVuSans-20" transform="translate(435.351562 0)"/>
     <use xlink:href="#DejaVuSans-49" transform="translate(467.138672 0)"/>
     <use xlink:href="#DejaVuSans-6e" transform="translate(496.630859 0)"/>
     <use xlink:href="#DejaVuSans-66" transform="translate(560.009766 0)"/>
     <use xlink:href="#DejaVuSans-65" transform="translate(595.214844 0)"/>
     <use xlink:href="#DejaVuSans-72" transform="translate(656.738281 0)"/>
     <use xlink:href="#DejaVuSans-65" transform="translate(695.601562 0)"/>
     <use xlink:href="#DejaVuSans-6e" transform="translate(757.125 0)"/>
     <use xlink:href="#DejaVuSans-7a" transform="translate(820.503906 0)"/>
     <use xlink:href="#DejaVuSans-7a" transform="translate(872.994141 0)"/>
     <use xlink:href="#DejaVuSans-65" transform="translate(925.484375 0)"/>
     <use xlink:href="#DejaVuSans-69" transform="translate(987.007812 0)"/>
     <use xlink:href="#DejaVuSans-74" transform="translate(1014.791016 0)"/>
     <use xlink:href="#DejaVuSans-20" transform="translate(1054 0)"/>
     <use xlink:href="#DejaVuSans-76" transform="translate(1085.787109 0)"/>
     <use xlink:href="#DejaVuSans-73" transform="translate(1144.966797 0)"/>
     <use xlink:href="#DejaVuSans-2e" transform="translate(1197.066406 0)"/>
     <use xlink:href="#DejaVuSans-20" transform="translate(1228.853516 0)"/>
     <use xlink:href="#DejaVuSans-47" transform="translate(1260.640625 0)"/>
     <use xlink:href="#DejaVuSans-72" transform="translate(1338.130859 0)"/>
     <use xlink:href="#DejaVuSans-61" transform="translate(1379.244141 0)"/>
     <use xlink:href="#DejaVuSans-70" transform="translate(1440.523438 0)"/>
     <use xlink:href="#DejaVuSans-68" transform="translate(1504 0)"/>
     <use xlink:href="#DejaVuSans-67" transform="translate(1567.378906 0)"/>
     <use xlink:href="#DejaVuSans-72" transform="translate(1630.855469 0)"/>
     <use xlink:href="#DejaVuSans-f6" transform="translate(1669.71875 0)"/>
     <use xlink:href="#DejaVuSans-df" transform="translate(1730.900391 0)"/>
     <use xlink:href="#DejaVuSans-65" transform="translate(1793.888672 0)"/>
     <use xlink:href="#DejaVuSans-20" transform="translate(1855.412109 0)"/>
     <use xlink:href="#DejaVuSans-2014" transform="translate(1887.199219 0)"/>
     <use xlink:href="#DejaVuSans-20" transform="translate(1987.199219 0)"/>
     <use xlink:href="#DejaVuSans-4c" transform="translate(2018.986328 0)"/>
     <use xlink:href="#DejaVuSans-6f" transform="translate(2072.949219 0)"/>
     <use xlink:href="#DejaVuSans-67" transform="translate(2134.130859 0)"/>
     <use xlink:href="#DejaVuSans-2d" transform="translate(2197.607422 0)"/>
     <use xlink:href="#DejaVuSans-4c" transform="translate(2233.691406 0)"/>
     <use xlink:href="#DejaVuSans-6f" transform="translate(2287.654297 0)"/>
     <use xlink:href="#DejaVuSans-67" transform="translate(2348.835938 0)"/>
     <use xlink:href="#DejaVuSans-2d" transform="translate(2412.3125 0)"/>
     <use xlink:href="#DejaVuSans-50" transform="translate(2448.396484 0)"/>
     <use xlink:href="#DejaVuSans-6c" transform="translate(2508.699219 0)"/>
     <use xlink:href="#DejaVuSans-6f" transform="translate(2536.482422 0)"/>
     <use xlink:href="#DejaVuSans-74" transform="translate(2597.664062 0)"/>
    </g>
   </g>
   <g id="legend_1">
    <g id="patch_7">
     <path d="M 76.61375 136.720313 
L 272.114844 136.720313 
Q 273.914844 136.720313 273.914844 134.920313 
L 273.914844 30.137812 
Q 273.914844 28.337813 272.114844 28.337813 
L 76.61375 28.337813 
Q 74.81375 28.337813 74.81375 30.137812 
L 74.81375 134.920313 
Q 74.81375 136.720313 76.61375 136.720313 
z
" style="fill: #ffffff; opacity: 0.85; stroke: #cccccc; stroke-linejoin: miter"/>
    </g>
    <g id="line2d_51">
     <path d="M 78.41375 35.626406 
L 87.41375 35.626406 
L 96.41375 35.626406 
" style="fill: none; stroke: #e41a1c; stroke-width: 1.8; stroke-linecap: square"/>
    </g>
    <g id="text_10">
     <!-- #1 tree (top-down)  (k≈-0.65) -->
     <g transform="translate(103.61375 38.776406) scale(0.09 -0.09)">
      <defs>
       <path id="DejaVuSans-23" d="M 3272 2816 
L 2363 2816 
L 2100 1772 
L 3016 1772 
L 3272 2816 
z
M 2803 4594 
L 2478 3297 
L 3391 3297 
L 3719 4594 
L 4219 4594 
L 3897 3297 
L 4872 3297 
L 4872 2816 
L 3775 2816 
L 3519 1772 
L 4513 1772 
L 4513 1294 
L 3397 1294 
L 3072 0 
L 2572 0 
L 2894 1294 
L 1978 1294 
L 1656 0 
L 1153 0 
L 1478 1294 
L 494 1294 
L 494 1772 
L 1594 1772 
L 1856 2816 
L 850 2816 
L 850 3297 
L 1978 3297 
L 2297 4594 
L 2803 4594 
z
" transform="scale(0.015625)"/>
       <path id="DejaVuSans-77" d="M 269 3500 
L 844 3500 
L 1563 769 
L 2278 3500 
L 2956 3500 
L 3675 769 
L 4391 3500 
L 4966 3500 
L 4050 0 
L 3372 0 
L 2619 2869 
L 1863 0 
L 1184 0 
L 269 3500 
z
" transform="scale(0.015625)"/>
       <path id="DejaVuSans-6b" d="M 581 4863 
L 1159 4863 
L 1159 1991 
L 2875 3500 
L 3609 3500 
L 1753 1863 
L 3688 0 
L 2938 0 
L 1159 1709 
L 1159 0 
L 581 0 
L 581 4863 
z
" transform="scale(0.015625)"/>
       <path id="DejaVuSans-2248" d="M 4684 1947 
L 4684 1388 
Q 4356 1144 4076 1036 
Q 3797 928 3494 928 
Q 3150 928 2694 1113 
Q 2663 1125 2641 1134 
Q 2622 1141 2575 1159 
Q 2091 1350 1797 1350 
Q 1522 1350 1253 1231 
Q 984 1113 678 850 
L 678 1409 
Q 1006 1653 1286 1761 
Q 1566 1869 1869 1869 
Q 2213 1869 2672 1684 
Q 2706 1669 2722 1663 
Q 2741 1656 2788 1638 
Q 3272 1447 3566 1447 
Q 3834 1447 4098 1564 
Q 4363 1681 4684 1947 
z
M 4684 3163 
L 4684 2606 
Q 4356 2359 4076 2251 
Q 3797 2144 3494 2144 
Q 3150 2144 2694 2328 
Q 2663 2341 2641 2350 
Q 2622 2356 2575 2375 
Q 2091 2566 1797 2566 
Q 1522 2566 1253 2447 
Q 984 2328 678 2069 
L 678 2625 
Q 1006 2869 1286 2976 
Q 1566 3084 1869 3084 
Q 2213 3084 2672 2900 
Q 2703 2888 2719 2881 
Q 2741 2872 2788 2853 
Q 3272 2663 3566 2663 
Q 3834 2663 4098 2780 
Q 4363 2897 4684 3163 
z
" transform="scale(0.015625)"/>
       <path id="DejaVuSans-35" d="M 691 4666 
L 3169 4666 
L 3169 4134 
L 1269 4134 
L 1269 2991 
Q 1406 3038 1543 3061 
Q 1681 3084 1819 3084 
Q 2600 3084 3056 2656 
Q 3513 2228 3513 1497 
Q 3513 744 3044 326 
Q 2575 -91 1722 -91 
Q 1428 -91 1123 -41 
Q 819 9 494 109 
L 494 744 
Q 775 591 1075 516 
Q 1375 441 1709 441 
Q 2250 441 2565 725 
Q 2881 1009 2881 1497 
Q 2881 1984 2565 2268 
Q 2250 2553 1709 2553 
Q 1456 2553 1204 2497 
Q 953 2441 691 2322 
L 691 4666 
z
" transform="scale(0.015625)"/>
      </defs>
      <use xlink:href="#DejaVuSans-23"/>
      <use xlink:href="#DejaVuSans-31" transform="translate(83.789062 0)"/>
      <use xlink:href="#DejaVuSans-20" transform="translate(147.412109 0)"/>
      <use xlink:href="#DejaVuSans-74" transform="translate(179.199219 0)"/>
      <use xlink:href="#DejaVuSans-72" transform="translate(218.408203 0)"/>
      <use xlink:href="#DejaVuSans-65" transform="translate(257.271484 0)"/>
      <use xlink:href="#DejaVuSans-65" transform="translate(318.794922 0)"/>
      <use xlink:href="#DejaVuSans-20" transform="translate(380.318359 0)"/>
      <use xlink:href="#DejaVuSans-28" transform="translate(412.105469 0)"/>
      <use xlink:href="#DejaVuSans-74" transform="translate(451.119141 0)"/>
      <use xlink:href="#DejaVuSans-6f" transform="translate(490.328125 0)"/>
      <use xlink:href="#DejaVuSans-70" transform="translate(551.509766 0)"/>
      <use xlink:href="#DejaVuSans-2d" transform="translate(614.986328 0)"/>
      <use xlink:href="#DejaVuSans-64" transform="translate(651.070312 0)"/>
      <use xlink:href="#DejaVuSans-6f" transform="translate(714.546875 0)"/>
      <use xlink:href="#DejaVuSans-77" transform="translate(775.728516 0)"/>
      <use xlink:href="#DejaVuSans-6e" transform="translate(857.515625 0)"/>
      <use xlink:href="#DejaVuSans-29" transform="translate(920.894531 0)"/>
      <use xlink:href="#DejaVuSans-20" transform="translate(959.908203 0)"/>
      <use xlink:href="#DejaVuSans-20" transform="translate(991.695312 0)"/>
      <use xlink:href="#DejaVuSans-28" transform="translate(1023.482422 0)"/>
      <use xlink:href="#DejaVuSans-6b" transform="translate(1062.496094 0)"/>
      <use xlink:href="#DejaVuSans-2248" transform="translate(1120.40625 0)"/>
      <use xlink:href="#DejaVuSans-2d" transform="translate(1204.195312 0)"/>
      <use xlink:href="#DejaVuSans-30" transform="translate(1240.279297 0)"/>
      <use xlink:href="#DejaVuSans-2e" transform="translate(1303.902344 0)"/>
      <use xlink:href="#DejaVuSans-36" transform="translate(1335.689453 0)"/>
      <use xlink:href="#DejaVuSans-35" transform="translate(1399.3125 0)"/>
      <use xlink:href="#DejaVuSans-29" transform="translate(1462.935547 0)"/>
     </g>
    </g>
    <g id="line2d_52">
     <path d="M 78.41375 48.836719 
L 87.41375 48.836719 
L 96.41375 48.836719 
" style="fill: none; stroke: #377eb8; stroke-width: 1.8; stroke-linecap: square"/>
    </g>
    <g id="text_11">
     <!-- #2 tree (bidirectional)  (k≈0.08) -->
     <g transform="translate(103.61375 51.986719) scale(0.09 -0.09)">
      <defs>
       <path id="DejaVuSans-38" d="M 2034 2216 
Q 1584 2216 1326 1975 
Q 1069 1734 1069 1313 
Q 1069 891 1326 650 
Q 1584 409 2034 409 
Q 2484 409 2743 651 
Q 3003 894 3003 1313 
Q 3003 1734 2745 1975 
Q 2488 2216 2034 2216 
z
M 1403 2484 
Q 997 2584 770 2862 
Q 544 3141 544 3541 
Q 544 4100 942 4425 
Q 1341 4750 2034 4750 
Q 2731 4750 3128 4425 
Q 3525 4100 3525 3541 
Q 3525 3141 3298 2862 
Q 3072 2584 2669 2484 
Q 3125 2378 3379 2068 
Q 3634 1759 3634 1313 
Q 3634 634 3220 271 
Q 2806 -91 2034 -91 
Q 1263 -91 848 271 
Q 434 634 434 1313 
Q 434 1759 690 2068 
Q 947 2378 1403 2484 
z
M 1172 3481 
Q 1172 3119 1398 2916 
Q 1625 2713 2034 2713 
Q 2441 2713 2670 2916 
Q 2900 3119 2900 3481 
Q 2900 3844 2670 4047 
Q 2441 4250 2034 4250 
Q 1625 4250 1398 4047 
Q 1172 3844 1172 3481 
z
" transform="scale(0.015625)"/>
      </defs>
      <use xlink:href="#DejaVuSans-23"/>
      <use xlink:href="#DejaVuSans-32" transform="translate(83.789062 0)"/>
      <use xlink:href="#DejaVuSans-20" transform="translate(147.412109 0)"/>
      <use xlink:href="#DejaVuSans-74" transform="translate(179.199219 0)"/>
      <use xlink:href="#DejaVuSans-72" transform="translate(218.408203 0)"/>
      <use xlink:href="#DejaVuSans-65" transform="translate(257.271484 0)"/>
      <use xlink:href="#DejaVuSans-65" transform="translate(318.794922 0)"/>
      <use xlink:href="#DejaVuSans-20" transform="translate(380.318359 0)"/>
      <use xlink:href="#DejaVuSans-28" transform="translate(412.105469 0)"/>
      <use xlink:href="#DejaVuSans-62" transform="translate(451.119141 0)"/>
      <use xlink:href="#DejaVuSans-69" transform="translate(514.595703 0)"/>
      <use xlink:href="#DejaVuSans-64" transform="translate(542.378906 0)"/>
      <use xlink:href="#DejaVuSans-69" transform="translate(605.855469 0)"/>
      <use xlink:href="#DejaVuSans-72" transform="translate(633.638672 0)"/>
      <use xlink:href="#DejaVuSans-65" transform="translate(672.501953 0)"/>
      <use xlink:href="#DejaVuSans-63" transform="translate(734.025391 0)"/>
      <use xlink:href="#DejaVuSans-74" transform="translate(789.005859 0)"/>
      <use xlink:href="#DejaVuSans-69" transform="translate(828.214844 0)"/>
      <use xlink:href="#DejaVuSans-6f" transform="translate(855.998047 0)"/>
      <use xlink:href="#DejaVuSans-6e" transform="translate(917.179688 0)"/>
      <use xlink:href="#DejaVuSans-61" transform="translate(980.558594 0)"/>
      <use xlink:href="#DejaVuSans-6c" transform="translate(1041.837891 0)"/>
      <use xlink:href="#DejaVuSans-29" transform="translate(1069.621094 0)"/>
      <use xlink:href="#DejaVuSans-20" transform="translate(1108.634766 0)"/>
      <use xlink:href="#DejaVuSans-20" transform="translate(1140.421875 0)"/>
      <use xlink:href="#DejaVuSans-28" transform="translate(1172.208984 0)"/>
      <use xlink:href="#DejaVuSans-6b" transform="translate(1211.222656 0)"/>
      <use xlink:href="#DejaVuSans-2248" transform="translate(1269.132812 0)"/>
      <use xlink:href="#DejaVuSans-30" transform="translate(1352.921875 0)"/>
      <use xlink:href="#DejaVuSans-2e" transform="translate(1416.544922 0)"/>
      <use xlink:href="#DejaVuSans-30" transform="translate(1448.332031 0)"/>
      <use xlink:href="#DejaVuSans-38" transform="translate(1511.955078 0)"/>
      <use xlink:href="#DejaVuSans-29" transform="translate(1575.578125 0)"/>
     </g>
    </g>
    <g id="line2d_53">
     <path d="M 78.41375 62.047031 
L 87.41375 62.047031 
L 96.41375 62.047031 
" style="fill: none; stroke: #4daf4a; stroke-width: 1.8; stroke-linecap: square"/>
    </g>
    <g id="text_12">
     <!-- #3 tree + kappa  (k≈-1.38) -->
     <g transform="translate(103.61375 65.197031) scale(0.09 -0.09)">
      <use xlink:href="#DejaVuSans-23"/>
      <use xlink:href="#DejaVuSans-33" transform="translate(83.789062 0)"/>
      <use xlink:href="#DejaVuSans-20" transform="translate(147.412109 0)"/>
      <use xlink:href="#DejaVuSans-74" transform="translate(179.199219 0)"/>
      <use xlink:href="#DejaVuSans-72" transform="translate(218.408203 0)"/>
      <use xlink:href="#DejaVuSans-65" transform="translate(257.271484 0)"/>
      <use xlink:href="#DejaVuSans-65" transform="translate(318.794922 0)"/>
      <use xlink:href="#DejaVuSans-20" transform="translate(380.318359 0)"/>
      <use xlink:href="#DejaVuSans-2b" transform="translate(412.105469 0)"/>
      <use xlink:href="#DejaVuSans-20" transform="translate(495.894531 0)"/>
      <use xlink:href="#DejaVuSans-6b" transform="translate(527.681641 0)"/>
      <use xlink:href="#DejaVuSans-61" transform="translate(583.841797 0)"/>
      <use xlink:href="#DejaVuSans-70" transform="translate(645.121094 0)"/>
      <use xlink:href="#DejaVuSans-70" transform="translate(708.597656 0)"/>
      <use xlink:href="#DejaVuSans-61" transform="translate(772.074219 0)"/>
      <use xlink:href="#DejaVuSans-20" transform="translate(833.353516 0)"/>
      <use xlink:href="#DejaVuSans-20" transform="translate(865.140625 0)"/>
      <use xlink:href="#DejaVuSans-28" transform="translate(896.927734 0)"/>
      <use xlink:href="#DejaVuSans-6b" transform="translate(935.941406 0)"/>
      <use xlink:href="#DejaVuSans-2248" transform="translate(993.851562 0)"/>
      <use xlink:href="#DejaVuSans-2d" transform="translate(1077.640625 0)"/>
      <use xlink:href="#DejaVuSans-31" transform="translate(1113.724609 0)"/>
      <use xlink:href="#DejaVuSans-2e" transform="translate(1177.347656 0)"/>
      <use xlink:href="#DejaVuSans-33" transform="translate(1209.134766 0)"/>
      <use xlink:href="#DejaVuSans-38" transform="translate(1272.757812 0)"/>
      <use xlink:href="#DejaVuSans-29" transform="translate(1336.380859 0)"/>
     </g>
    </g>
    <g id="line2d_54">
     <path d="M 78.41375 75.257344 
L 87.41375 75.257344 
L 96.41375 75.257344 
" style="fill: none; stroke: #984ea3; stroke-width: 1.8; stroke-linecap: square"/>
    </g>
    <g id="text_13">
     <!-- #4 tree-deriv  (k≈0.02) -->
     <g transform="translate(103.61375 78.407344) scale(0.09 -0.09)">
      <use xlink:href="#DejaVuSans-23"/>
      <use xlink:href="#DejaVuSans-34" transform="translate(83.789062 0)"/>
      <use xlink:href="#DejaVuSans-20" transform="translate(147.412109 0)"/>
      <use xlink:href="#DejaVuSans-74" transform="translate(179.199219 0)"/>
      <use xlink:href="#DejaVuSans-72" transform="translate(218.408203 0)"/>
      <use xlink:href="#DejaVuSans-65" transform="translate(257.271484 0)"/>
      <use xlink:href="#DejaVuSans-65" transform="translate(318.794922 0)"/>
      <use xlink:href="#DejaVuSans-2d" transform="translate(380.318359 0)"/>
      <use xlink:href="#DejaVuSans-64" transform="translate(416.402344 0)"/>
      <use xlink:href="#DejaVuSans-65" transform="translate(479.878906 0)"/>
      <use xlink:href="#DejaVuSans-72" transform="translate(541.402344 0)"/>
      <use xlink:href="#DejaVuSans-69" transform="translate(582.515625 0)"/>
      <use xlink:href="#DejaVuSans-76" transform="translate(610.298828 0)"/>
      <use xlink:href="#DejaVuSans-20" transform="translate(669.478516 0)"/>
      <use xlink:href="#DejaVuSans-20" transform="translate(701.265625 0)"/>
      <use xlink:href="#DejaVuSans-28" transform="translate(733.052734 0)"/>
      <use xlink:href="#DejaVuSans-6b" transform="translate(772.066406 0)"/>
      <use xlink:href="#DejaVuSans-2248" transform="translate(829.976562 0)"/>
      <use xlink:href="#DejaVuSans-30" transform="translate(913.765625 0)"/>
      <use xlink:href="#DejaVuSans-2e" transform="translate(977.388672 0)"/>
      <use xlink:href="#DejaVuSans-30" transform="translate(1009.175781 0)"/>
      <use xlink:href="#DejaVuSans-32" transform="translate(1072.798828 0)"/>
      <use xlink:href="#DejaVuSans-29" transform="translate(1136.421875 0)"/>
     </g>
    </g>
    <g id="line2d_55">
     <path d="M 78.41375 88.467656 
L 87.41375 88.467656 
L 96.41375 88.467656 
" style="fill: none; stroke: #ff7f00; stroke-width: 1.8; stroke-linecap: square"/>
    </g>
    <g id="text_14">
     <!-- #5 tree-deriv + supernode  (k≈0.31) -->
     <g transform="translate(103.61375 91.617656) scale(0.09 -0.09)">
      <use xlink:href="#DejaVuSans-23"/>
      <use xlink:href="#DejaVuSans-35" transform="translate(83.789062 0)"/>
      <use xlink:href="#DejaVuSans-20" transform="translate(147.412109 0)"/>
      <use xlink:href="#DejaVuSans-74" transform="translate(179.199219 0)"/>
      <use xlink:href="#DejaVuSans-72" transform="translate(218.408203 0)"/>
      <use xlink:href="#DejaVuSans-65" transform="translate(257.271484 0)"/>
      <use xlink:href="#DejaVuSans-65" transform="translate(318.794922 0)"/>
      <use xlink:href="#DejaVuSans-2d" transform="translate(380.318359 0)"/>
      <use xlink:href="#DejaVuSans-64" transform="translate(416.402344 0)"/>
      <use xlink:href="#DejaVuSans-65" transform="translate(479.878906 0)"/>
      <use xlink:href="#DejaVuSans-72" transform="translate(541.402344 0)"/>
      <use xlink:href="#DejaVuSans-69" transform="translate(582.515625 0)"/>
      <use xlink:href="#DejaVuSans-76" transform="translate(610.298828 0)"/>
      <use xlink:href="#DejaVuSans-20" transform="translate(669.478516 0)"/>
      <use xlink:href="#DejaVuSans-2b" transform="translate(701.265625 0)"/>
      <use xlink:href="#DejaVuSans-20" transform="translate(785.054688 0)"/>
      <use xlink:href="#DejaVuSans-73" transform="translate(816.841797 0)"/>
      <use xlink:href="#DejaVuSans-75" transform="translate(868.941406 0)"/>
      <use xlink:href="#DejaVuSans-70" transform="translate(932.320312 0)"/>
      <use xlink:href="#DejaVuSans-65" transform="translate(995.796875 0)"/>
      <use xlink:href="#DejaVuSans-72" transform="translate(1057.320312 0)"/>
      <use xlink:href="#DejaVuSans-6e" transform="translate(1096.683594 0)"/>
      <use xlink:href="#DejaVuSans-6f" transform="translate(1160.0625 0)"/>
      <use xlink:href="#DejaVuSans-64" transform="translate(1221.244141 0)"/>
      <use xlink:href="#DejaVuSans-65" transform="translate(1284.720703 0)"/>
      <use xlink:href="#DejaVuSans-20" transform="translate(1346.244141 0)"/>
      <use xlink:href="#DejaVuSans-20" transform="translate(1378.03125 0)"/>
      <use xlink:href="#DejaVuSans-28" transform="translate(1409.818359 0)"/>
      <use xlink:href="#DejaVuSans-6b" transform="translate(1448.832031 0)"/>
      <use xlink:href="#DejaVuSans-2248" transform="translate(1506.742188 0)"/>
      <use xlink:href="#DejaVuSans-30" transform="translate(1590.53125 0)"/>
      <use xlink:href="#DejaVuSans-2e" transform="translate(1654.154297 0)"/>
      <use xlink:href="#DejaVuSans-33" transform="translate(1685.941406 0)"/>
      <use xlink:href="#DejaVuSans-31" transform="translate(1749.564453 0)"/>
      <use xlink:href="#DejaVuSans-29" transform="translate(1813.1875 0)"/>
     </g>
    </g>
    <g id="line2d_56">
     <path d="M 78.41375 101.677969 
L 87.41375 101.677969 
L 96.41375 101.677969 
" style="fill: none; stroke: #a65628; stroke-width: 1.8; stroke-linecap: square"/>
    </g>
    <g id="text_15">
     <!-- #6 tree-deriv + kappa  (k≈-0.68) -->
     <g transform="translate(103.61375 104.827969) scale(0.09 -0.09)">
      <use xlink:href="#DejaVuSans-23"/>
      <use xlink:href="#DejaVuSans-36" transform="translate(83.789062 0)"/>
      <use xlink:href="#DejaVuSans-20" transform="translate(147.412109 0)"/>
      <use xlink:href="#DejaVuSans-74" transform="translate(179.199219 0)"/>
      <use xlink:href="#DejaVuSans-72" transform="translate(218.408203 0)"/>
      <use xlink:href="#DejaVuSans-65" transform="translate(257.271484 0)"/>
      <use xlink:href="#DejaVuSans-65" transform="translate(318.794922 0)"/>
      <use xlink:href="#DejaVuSans-2d" transform="translate(380.318359 0)"/>
      <use xlink:href="#DejaVuSans-64" transform="translate(416.402344 0)"/>
      <use xlink:href="#DejaVuSans-65" transform="translate(479.878906 0)"/>
      <use xlink:href="#DejaVuSans-72" transform="translate(541.402344 0)"/>
      <use xlink:href="#DejaVuSans-69" transform="translate(582.515625 0)"/>
      <use xlink:href="#DejaVuSans-76" transform="translate(610.298828 0)"/>
      <use xlink:href="#DejaVuSans-20" transform="translate(669.478516 0)"/>
      <use xlink:href="#DejaVuSans-2b" transform="translate(701.265625 0)"/>
      <use xlink:href="#DejaVuSans-20" transform="translate(785.054688 0)"/>
      <use xlink:href="#DejaVuSans-6b" transform="translate(816.841797 0)"/>
      <use xlink:href="#DejaVuSans-61" transform="translate(873.001953 0)"/>
      <use xlink:href="#DejaVuSans-70" transform="translate(934.28125 0)"/>
      <use xlink:href="#DejaVuSans-70" transform="translate(997.757812 0)"/>
      <use xlink:href="#DejaVuSans-61" transform="translate(1061.234375 0)"/>
      <use xlink:href="#DejaVuSans-20" transform="translate(1122.513672 0)"/>
      <use xlink:href="#DejaVuSans-20" transform="translate(1154.300781 0)"/>
      <use xlink:href="#DejaVuSans-28" transform="translate(1186.087891 0)"/>
      <use xlink:href="#DejaVuSans-6b" transform="translate(1225.101562 0)"/>
      <use xlink:href="#DejaVuSans-2248" transform="translate(1283.011719 0)"/>
      <use xlink:href="#DejaVuSans-2d" transform="translate(1366.800781 0)"/>
      <use xlink:href="#DejaVuSans-30" transform="translate(1402.884766 0)"/>
      <use xlink:href="#DejaVuSans-2e" transform="translate(1466.507812 0)"/>
      <use xlink:href="#DejaVuSans-36" transform="translate(1498.294922 0)"/>
      <use xlink:href="#DejaVuSans-38" transform="translate(1561.917969 0)"/>
      <use xlink:href="#DejaVuSans-29" transform="translate(1625.541016 0)"/>
     </g>
    </g>
    <g id="line2d_57">
     <path d="M 78.41375 114.888281 
L 87.41375 114.888281 
L 96.41375 114.888281 
" style="fill: none; stroke: #f781bf; stroke-width: 1.8; stroke-linecap: square"/>
    </g>
    <g id="text_16">
     <!-- #7 graph  (k≈0.66) -->
     <g transform="translate(103.61375 118.038281) scale(0.09 -0.09)">
      <defs>
       <path id="DejaVuSans-37" d="M 525 4666 
L 3525 4666 
L 3525 4397 
L 1831 0 
L 1172 0 
L 2766 4134 
L 525 4134 
L 525 4666 
z
" transform="scale(0.015625)"/>
      </defs>
      <use xlink:href="#DejaVuSans-23"/>
      <use xlink:href="#DejaVuSans-37" transform="translate(83.789062 0)"/>
      <use xlink:href="#DejaVuSans-20" transform="translate(147.412109 0)"/>
      <use xlink:href="#DejaVuSans-67" transform="translate(179.199219 0)"/>
      <use xlink:href="#DejaVuSans-72" transform="translate(242.675781 0)"/>
      <use xlink:href="#DejaVuSans-61" transform="translate(283.789062 0)"/>
      <use xlink:href="#DejaVuSans-70" transform="translate(345.068359 0)"/>
      <use xlink:href="#DejaVuSans-68" transform="translate(408.544922 0)"/>
      <use xlink:href="#DejaVuSans-20" transform="translate(471.923828 0)"/>
      <use xlink:href="#DejaVuSans-20" transform="translate(503.710938 0)"/>
      <use xlink:href="#DejaVuSans-28" transform="translate(535.498047 0)"/>
      <use xlink:href="#DejaVuSans-6b" transform="translate(574.511719 0)"/>
      <use xlink:href="#DejaVuSans-2248" transform="translate(632.421875 0)"/>
      <use xlink:href="#DejaVuSans-30" transform="translate(716.210938 0)"/>
      <use xlink:href="#DejaVuSans-2e" transform="translate(779.833984 0)"/>
      <use xlink:href="#DejaVuSans-36" transform="translate(811.621094 0)"/>
      <use xlink:href="#DejaVuSans-36" transform="translate(875.244141 0)"/>
      <use xlink:href="#DejaVuSans-29" transform="translate(938.867188 0)"/>
     </g>
    </g>
    <g id="line2d_58">
     <path d="M 78.41375 128.098594 
L 87.41375 128.098594 
L 96.41375 128.098594 
" style="fill: none; stroke: #999999; stroke-width: 1.8; stroke-linecap: square"/>
    </g>
    <g id="text_17">
     <!-- #8 graph + kappa  (k≈1.33) -->
     <g transform="translate(103.61375 131.248594) scale(0.09 -0.09)">
      <use xlink:href="#DejaVuSans-23"/>
      <use xlink:href="#DejaVuSans-38" transform="translate(83.789062 0)"/>
      <use xlink:href="#DejaVuSans-20" transform="translate(147.412109 0)"/>
      <use xlink:href="#DejaVuSans-67" transform="translate(179.199219 0)"/>
      <use xlink:href="#DejaVuSans-72" transform="translate(242.675781 0)"/>
      <use xlink:href="#DejaVuSans-61" transform="translate(283.789062 0)"/>
      <use xlink:href="#DejaVuSans-70" transform="translate(345.068359 0)"/>
      <use xlink:href="#DejaVuSans-68" transform="translate(408.544922 0)"/>
      <use xlink:href="#DejaVuSans-20" transform="translate(471.923828 0)"/>
      <use xlink:href="#DejaVuSans-2b" transform="translate(503.710938 0)"/>
      <use xlink:href="#DejaVuSans-20" transform="translate(587.5 0)"/>
      <use xlink:href="#DejaVuSans-6b" transform="translate(619.287109 0)"/>
      <use xlink:href="#DejaVuSans-61" transform="translate(675.447266 0)"/>
      <use xlink:href="#DejaVuSans-70" transform="translate(736.726562 0)"/>
      <use xlink:href="#DejaVuSans-70" transform="translate(800.203125 0)"/>
      <use xlink:href="#DejaVuSans-61" transform="translate(863.679688 0)"/>
      <use xlink:href="#DejaVuSans-20" transform="translate(924.958984 0)"/>
      <use xlink:href="#DejaVuSans-20" transform="translate(956.746094 0)"/>
      <use xlink:href="#DejaVuSans-28" transform="translate(988.533203 0)"/>
      <use xlink:href="#DejaVuSans-6b" transform="translate(1027.546875 0)"/>
      <use xlink:href="#DejaVuSans-2248" transform="translate(1085.457031 0)"/>
      <use xlink:href="#DejaVuSans-31" transform="translate(1169.246094 0)"/>
      <use xlink:href="#DejaVuSans-2e" transform="translate(1232.869141 0)"/>
      <use xlink:href="#DejaVuSans-33" transform="translate(1264.65625 0)"/>
      <use xlink:href="#DejaVuSans-33" transform="translate(1328.279297 0)"/>
      <use xlink:href="#DejaVuSans-29" transform="translate(1391.902344 0)"/>
     </g>
    </g>
   </g>
  </g>
 </g>
 <defs>
  <clipPath id="p4a537b68c0">
   <rect x="70.31375" y="23.837813" width="849.303888" height="500.05675"/>
  </clipPath>
 </defs>
</svg>
